<?xml version="1.0" encoding="UTF-8" standalone="no"?>
<!-- Created with Inkscape (http://www.inkscape.org/) -->
<svg xmlns:svg="http://www.w3.org/2000/svg" xmlns="http://www.w3.org/2000/svg" version="1.0" width="289.01401" height="487.23199" viewBox="188.308 94.697 289.014 487.232" id="Layer_1" xml:space="preserve"><defs id="defs918"/>
<path d="M 336.411,101.882 C 336.914,102.475 336.932,104.451 335.795,104.345 C 335.979,103.545 335.671,103.237 334.871,103.421 C 334.801,102.325 335.314,101.812 336.411,101.882 z " style="fill: rgb(255, 255, 255);" id="path3"/>
<path d="M 333.332,106.809 C 333.594,106.752 333.623,106.929 333.64,107.117 C 334.171,106.915 335.265,107.091 335.795,108.348 C 335.643,109.428 335.336,110.352 335.487,111.735 C 334.465,111.423 335.059,109.494 334.256,108.964 C 333.733,108.851 333.675,109.204 333.64,109.58 C 332.753,109.174 333.007,107.628 333.332,106.809 z " style="fill: rgb(255, 255, 255);" id="path5"/>
<path d="M 339.49,110.196 C 340.446,110.78 341.248,111.517 341.646,112.659 C 340.083,113.756 339.835,111.3 339.49,110.196 z " style="fill: rgb(255, 255, 255);" id="path7"/>
<path d="M 337.643,117.586 C 337.428,118.908 338.991,119.472 337.952,120.665 C 336.699,120.113 336.881,119.319 336.721,118.202 C 335.674,120.132 335.35,117.611 333.334,119.126 C 333.334,118.715 333.334,118.305 333.334,117.894 C 335.131,118.15 335.734,117.636 337.643,117.586 z " style="fill: rgb(255, 255, 255);" id="path9"/>
<path d="M 321.631,127.439 C 322.559,126.883 320.756,126.496 321.323,125.284 C 322.955,125.684 322.279,123.777 323.786,124.052 C 324.129,125.729 323.114,126.049 322.862,127.132 C 323.242,128.067 323.921,126.798 324.71,127.132 C 325.35,127.053 324.794,125.779 325.326,125.592 C 326.288,125.451 326.309,126.25 326.25,127.132 C 327.998,126.724 327.131,123.702 328.405,122.821 C 328.306,121.647 326.964,120.56 327.789,119.434 C 333.281,125.239 323.851,132.543 318.859,128.056 C 318.511,126.336 321.795,126.28 321.631,127.439 z " id="path11"/>
<path d="M 336.411,128.055 C 338.002,128.493 338.883,130.667 338.259,132.366 C 337.746,132.366 337.234,132.366 336.719,132.366 C 336.107,130.861 336.271,129.79 336.411,128.055 z " style="fill: rgb(255, 255, 255);" id="path13"/>
<path d="M 333.64,128.979 C 334.28,129.058 333.724,130.332 334.256,130.519 C 334.801,130.244 334.65,129.269 335.796,129.596 C 335.936,131.534 334.563,131.985 334.872,133.291 C 333.834,132.892 334.471,130.818 333.025,130.828 C 333.125,130.106 333.395,129.554 333.64,128.979 z " style="fill: rgb(255, 255, 255);" id="path15"/>
<path d="M 314.241,130.826 C 315.208,130.68 315.053,131.655 315.781,131.75 C 315.487,132.995 314.589,133.637 314.55,135.137 C 312.289,134.607 313.17,131.971 314.241,130.826 z " style="fill: rgb(255, 255, 255);" id="path17"/>
<path d="M 317.936,132.981 C 318.039,134.109 317.594,134.692 317.321,135.444 C 316.35,135.593 316.624,134.499 315.472,134.828 C 315.529,133.347 316.606,132.297 317.936,132.981 z " style="fill: rgb(255, 255, 255);" id="path19"/>
<path d="M 321.323,134.213 C 320.969,135.706 320.139,136.725 318.244,136.676 C 318.153,134.617 319.733,132.787 321.323,134.213 z " style="fill: rgb(255, 255, 255);" id="path21"/>
<path d="M 322.247,135.753 C 322.88,135.839 322.861,136.575 323.171,136.984 C 323.374,138.11 322.504,138.165 322.555,139.14 C 323.596,139.257 323.868,138.606 324.403,138.216 C 325.891,138.94 325.382,139.78 325.018,141.295 C 324.032,141.564 324.055,140.821 323.787,140.371 C 322.884,140.633 324.186,141.146 323.787,141.911 C 322.123,141.659 321.891,140.78 322.247,139.14 C 321.196,139.218 320.648,139.799 320.707,140.987 C 319.904,138.916 320.122,136.872 322.247,135.753 z " style="fill: rgb(255, 255, 255);" id="path23"/>
<path d="M 317.32,137.601 C 318.192,137.55 317.064,139.499 317.935,139.448 C 317.36,140.323 316.916,139.891 317.32,141.296 C 315.5,140.562 316.35,138.646 317.32,137.601 z " style="fill: rgb(255, 255, 255);" id="path25"/>
<path d="M 377.672,137.908 C 378.691,140.175 380.642,141.507 380.752,144.682 C 379.468,142.681 378.364,140.501 377.672,137.908 z " style="fill: rgb(255, 255, 255);" id="path27"/>
<path d="M 326.558,140.063 C 327.653,140.611 327.831,142.074 328.713,142.834 C 328.339,144.103 327.065,144.469 326.25,145.297 C 325.275,145.143 324.992,144.297 324.71,143.449 C 325.024,142.02 326.281,141.532 326.558,140.063 z " style="fill: rgb(255, 255, 255);" id="path29"/>
<path d="M 384.138,141.911 C 385.178,141.832 384.418,144.703 382.908,144.066 C 382.65,143.709 382.502,143.241 382.599,142.526 C 383.147,142.357 383.877,142.369 384.138,141.911 z " style="fill: rgb(255, 255, 255);" id="path31"/>
<path d="M 321.016,142.219 C 322.048,142.316 321.328,144.166 322.247,144.374 C 321.496,144.654 320.336,145.452 319.784,144.99 C 319.65,143.522 321.003,143.541 321.016,142.219 z " style="fill: rgb(255, 255, 255);" id="path33"/>
<path d="M 353.962,142.219 C 355.116,142.399 355.103,143.746 356.425,143.759 C 356.329,144.792 355.395,144.987 354.577,145.299 C 354.408,144.065 353.542,143.187 353.962,142.219 z " style="fill: rgb(255, 255, 255);" id="path35"/>
<path d="M 315.781,142.835 C 316.043,141.932 316.555,143.235 317.321,142.835 C 317.68,144.631 316.211,144.599 315.781,145.606 C 314.825,145.638 314.903,144.637 313.626,144.99 C 313.503,143.841 313.872,143.183 314.857,143.143 C 314.726,143.787 315.068,143.958 315.165,144.374 C 315.574,144.065 316.311,144.083 316.396,143.45 C 316.26,143.177 316.126,142.9 315.781,142.835 z " style="fill: rgb(255, 255, 255);" id="path37"/>
<path d="M 274.52,143.143 C 275.072,143.103 275.169,143.519 275.751,143.451 C 275.788,144.822 274.673,145.042 274.828,146.53 C 272.618,146.496 273.392,143.858 274.52,143.143 z " style="fill: rgb(255, 255, 255);" id="path39"/>
<path d="M 326.558,147.146 C 328.35,140.006 333.517,147.817 326.558,147.146 L 326.558,147.146 z " style="fill: rgb(255, 255, 255);" id="path41"/>
<path d="M 322.555,144.066 C 322.651,143.648 323.326,143.811 323.786,143.758 C 324.232,146.689 323.47,147.438 324.402,150.224 C 322.871,150.421 322.669,149.288 321.323,149.3 C 321.446,147.529 324.112,145.524 322.555,144.066 z " style="fill: rgb(255, 255, 255);" id="path43"/>
<path d="M 334.872,144.066 C 336.506,145.689 333.674,147.655 333.332,149.301 C 332.302,148.283 334.885,146.067 334.872,144.066 z " id="path45"/>
<path d="M 280.986,146.222 C 283.002,147.021 280.772,149.61 280.678,151.148 C 279.924,149.87 281.096,147.88 280.986,146.222 z " style="fill: rgb(255, 255, 255);" id="path47"/>
<path d="M 338.259,153.92 C 336.662,153.054 336.426,150.826 335.488,149.301 C 336.973,150.279 337.731,151.984 338.259,153.92 z " id="path49"/>
<path d="M 328.405,151.148 C 327.908,151.575 326.818,151.409 326.557,152.072 C 325.685,152.123 326.814,150.174 325.942,150.225 C 326.674,149.351 328.699,149.392 328.405,151.148 z " style="fill: rgb(255, 255, 255);" id="path51"/>
<path d="M 272.98,150.225 C 273.938,153.862 272.37,158.564 270.825,161.926 C 270.283,159.134 273.027,155.604 270.825,153.304 C 270.849,151.583 273.172,152.161 272.98,150.225 z " style="fill: rgb(255, 255, 255);" id="path53"/>
<path d="M 257.893,150.841 C 259.281,152.018 258.065,153.409 258.509,154.536 C 257.865,154.666 257.694,154.325 257.278,154.228 C 257.362,152.979 258.256,152.539 257.893,150.841 z " style="fill: rgb(255, 255, 255);" id="path55"/>
<path d="M 286.837,151.457 C 288.345,152.838 285.797,155.288 286.529,157.923 C 285.658,157.87 284.417,158.188 284.374,157.307 C 285.724,155.886 286.299,153.69 286.837,151.457 z " style="fill: rgb(255, 255, 255);" id="path57"/>
<path d="M 353.962,151.457 C 355.851,152.134 356.458,154.094 356.425,156.692 C 355.654,157.254 354.398,157.333 353.962,158.232 C 353.509,159.403 355.338,158.292 354.886,159.463 C 354.373,159.463 353.861,159.463 353.346,159.463 C 353.649,157.005 350.639,157.859 351.498,154.844 C 352.245,154.359 352.813,153.696 354.269,153.92 C 354.54,152.932 353.47,153.282 353.345,152.689 C 353.123,151.848 353.958,152.068 353.962,151.457 z " style="fill: rgb(255, 255, 255);" id="path59"/>
<path d="M 280.678,153.612 C 279.222,153.534 278.654,153.486 277.907,153.304 C 277.869,151.579 280.883,151.644 280.678,153.612 z " style="fill: rgb(255, 255, 255);" id="path61"/>
<path d="M 365.971,153.304 C 366.374,154.631 364.505,153.685 364.741,154.844 C 364.114,154.753 363.921,154.227 363.509,153.92 C 363.919,153.2 364.885,153.038 365.664,152.689 C 365.613,153.046 365.731,153.236 365.971,153.304 z " id="path63"/>
<path d="M 331.792,153.304 C 333.76,154.953 334.703,159.187 335.179,161.31 C 333.504,159.188 332.909,155.985 331.792,153.304 z " id="path65"/>
<path d="M 334.872,153.304 C 336.125,154.411 336.625,156.273 337.335,157.923 C 335.798,157.099 335.338,155.198 334.872,153.304 z " id="path67"/>
<path d="M 279.139,153.92 C 279.595,154.08 279.915,154.376 280.371,154.536 C 279.185,159.098 277.782,163.442 276.368,167.777 C 275.55,167.774 274.609,167.893 274.212,167.469 C 277.057,164.154 277.837,158.777 279.139,153.92 z " style="fill: rgb(255, 255, 255);" id="path69"/>
<path d="M 330.561,153.92 C 332.178,154.971 332.268,157.55 333.025,159.462 C 331.441,158.376 331.292,155.857 330.561,153.92 z " id="path71"/>
<path d="M 370.282,153.92 C 370.816,154.412 370.949,155.306 370.898,156.383 C 370.047,156.515 370.609,155.235 369.973,155.151 C 369.555,155.247 369.718,155.922 369.665,156.383 C 369.152,156.383 368.639,156.383 368.125,156.383 C 368.725,155.442 369.636,154.814 370.282,153.92 z " style="fill: rgb(255, 255, 255);" id="path73"/>
<path d="M 375.517,153.92 C 376.081,153.904 376.559,155.498 377.057,154.536 C 377.769,154.851 377.695,155.952 377.673,156.999 C 376.652,156.79 376.773,155.437 375.518,155.459 C 375.517,154.946 375.517,154.433 375.517,153.92 z " style="fill: rgb(255, 255, 255);" id="path75"/>
<path d="M 312.086,155.151 C 313.69,155.575 316.53,155.791 315.781,157.614 C 315.047,157.116 314.424,156.508 313.626,156.074 C 312.958,156.022 313.486,157.166 313.318,157.614 C 312.017,157.512 311.714,156.071 312.086,155.151 z " style="fill: rgb(255, 255, 255);" id="path77"/>
<path d="M 329.329,155.151 C 331.172,156.387 331.225,159.414 332.1,161.617 C 330.368,160.271 330.261,157.299 329.329,155.151 z " id="path79"/>
<path d="M 325.634,156.075 C 326.62,156.526 326.627,157.956 326.865,159.154 C 325.659,159.002 324.964,157.127 325.634,156.075 z " id="path81"/>
<path d="M 334.564,156.075 C 335.522,157.066 336.287,158.252 336.411,160.078 C 334.809,159.731 335.084,157.505 334.564,156.075 z " id="path83"/>
<path d="M 328.405,156.999 C 328.713,156.999 329.021,156.999 329.329,156.999 C 329.542,158.428 329.955,159.657 330.253,161.002 C 329.167,160.137 328.76,158.595 328.405,156.999 z " id="path85"/>
<path d="M 365.971,158.539 C 367.157,159.547 364.582,159.388 365.047,160.695 C 364.499,160.879 363.768,159.792 363.507,160.695 C 363.089,160.599 363.252,159.924 363.199,159.463 C 364.505,159.536 365.639,159.438 365.971,158.539 z " style="fill: rgb(255, 255, 255);" id="path87"/>
<path d="M 284.989,159.154 C 286.084,162.367 283.585,170.127 281.602,172.395 C 281.541,171.513 281.564,170.714 282.526,170.855 C 280.583,167.592 284.897,163.38 284.989,159.154 z " style="fill: rgb(255, 255, 255);" id="path89"/>
<path d="M 314.857,159.154 C 315.701,159.16 315.587,160.607 315.165,161.002 C 313.416,160.102 313.344,160.582 312.086,160.694 C 312.246,160.238 312.542,159.918 312.702,159.462 C 313.264,160.029 314.428,159.626 314.857,159.154 z " style="fill: rgb(255, 255, 255);" id="path91"/>
<path d="M 318.86,159.154 C 320.924,160.066 322.853,161.114 324.402,162.541 C 324.666,163.523 323.918,163.494 323.786,164.081 C 323.071,161.937 320.711,160.443 318.859,160.386 C 318.86,159.976 318.86,159.565 318.86,159.154 z " style="fill: rgb(255, 255, 255);" id="path93"/>
<path d="M 350.883,162.542 C 351.244,162.592 351.143,163.104 351.192,163.466 C 351.242,163.827 351.753,163.726 352.116,163.774 C 352.053,164.737 352.324,166.034 351.807,166.545 C 351.24,165.579 351.523,164.679 349.959,165.314 C 349.907,164.029 350.904,163.794 350.883,162.542 z " style="fill: rgb(255, 255, 255);" id="path95"/>
<path d="M 320.708,162.85 C 322.147,162.951 322.549,164.088 322.863,165.313 C 321.925,166.074 320.641,165.75 319.784,165.621 C 319.862,164.467 320.526,163.899 320.708,162.85 z " style="fill: rgb(255, 255, 255);" id="path97"/>
<path d="M 373.977,163.157 C 374.829,163.333 375.705,163.483 375.517,164.697 C 374.731,165.469 373.834,164.225 373.363,165.313 C 372.613,164.84 374.021,163.945 373.977,163.157 z " style="fill: rgb(255, 255, 255);" id="path99"/>
<path d="M 260.972,163.465 C 261.743,163.059 261.936,164.682 262.203,163.773 C 261.513,165.259 261.02,168.587 260.663,171.779 C 260.076,171.648 260.106,170.899 259.123,171.163 C 259.979,168.837 260.83,166.505 260.972,163.465 z " style="fill: rgb(255, 255, 255);" id="path101"/>
<path d="M 256.045,163.773 C 256.353,163.773 256.661,163.773 256.969,163.773 C 256.238,165.024 257.191,166.417 256.661,167.468 C 256.413,167.255 255.818,166.989 255.738,167.468 C 255.331,166.237 256.191,166.211 255.122,165.005 C 256.115,165.28 255.554,164 256.045,163.773 z " style="fill: rgb(255, 255, 255);" id="path103"/>
<path d="M 343.493,164.389 C 343.914,164.783 343.914,165.843 343.493,166.237 C 342.59,166.216 342.348,165.533 341.953,165.005 C 341.217,165.955 340.503,165.325 339.182,165.313 C 340.481,163.603 341.367,164.844 343.493,164.389 z " style="fill: rgb(255, 255, 255);" id="path105"/>
<path d="M 338.259,168.392 C 341.054,168.471 339.777,172.623 342.262,173.011 C 342.046,174.407 340.492,172.679 340.414,173.935 C 340.981,175.011 342.447,175.186 343.185,176.09 C 344.668,175.466 342.753,173.359 343.801,172.395 C 345.42,172.624 344.465,175.427 344.725,177.014 C 342.252,176.51 339.9,175.887 337.335,175.474 C 339.66,173.632 339.743,171.274 338.259,168.392 z " style="fill: rgb(255, 255, 255);" id="path107"/>
<path d="M 261.587,172.703 C 261.258,175.826 257.647,182.738 262.203,182.557 C 261.84,183.443 260.785,183.419 261.587,184.712 C 259.803,184.699 261.742,182.768 260.047,182.557 C 258.101,183.73 261.425,188.265 257.892,187.792 C 257.95,183.459 259.632,178.528 259.123,173.32 C 259.987,173.155 260.725,172.867 261.587,172.703 z " style="fill: rgb(255, 255, 255);" id="path109"/>
<path d="M 281.294,172.703 C 281.602,172.703 281.91,172.703 282.218,172.703 C 282.722,176.857 279.785,180.081 280.678,185.636 C 279.922,186.092 278.699,184.884 276.983,185.328 C 277.841,181.216 280.744,177.547 281.294,172.703 z " style="fill: rgb(255, 255, 255);" id="path111"/>
<path d="M 255.429,176.706 C 255.187,177.769 255.717,178.06 256.353,178.246 C 256.193,178.702 255.897,179.022 255.737,179.478 C 254.995,179.604 255.068,178.916 254.197,179.17 C 255.085,178.852 255.58,177.487 254.197,177.323 C 254.271,176.78 254.727,176.62 255.429,176.706 z " style="fill: rgb(255, 255, 255);" id="path113"/>
<path d="M 261.896,176.706 C 262.407,177.222 263.704,176.951 264.667,177.014 C 264.625,178.679 263.465,177.312 262.204,177.63 C 262.025,178.733 263.116,178.566 264.052,178.554 C 264.169,179.902 263.172,180.137 263.128,181.325 C 262.328,180.932 262.199,180.649 261.281,181.017 C 261.066,179.878 261.768,179.657 262.821,179.786 C 262.869,178.126 261.564,179.605 260.973,178.862 C 261.079,177.942 262.444,178.281 261.896,176.706 z " style="fill: rgb(255, 255, 255);" id="path115"/>
<path d="M 267.13,181.94 C 267.378,182.103 267.63,182.261 268.054,182.248 C 268.308,183.119 267.62,183.046 267.746,183.788 C 268.892,183.6 268.541,181.915 269.901,181.94 C 270.538,182.801 268.788,183.335 268.977,184.711 C 268.327,184.168 268.067,184.017 267.129,184.403 C 267.13,183.583 267.13,182.762 267.13,181.94 z " style="fill: rgb(255, 255, 255);" id="path117"/>
<path d="M 288.376,182.864 C 287.715,184.359 286.676,185.475 285.605,186.559 C 284.765,186.783 284.985,185.947 284.374,185.943 C 284.727,183.936 287.182,184.03 288.376,182.864 z " style="fill: rgb(255, 255, 255);" id="path119"/>
<path d="M 334.872,183.48 C 336.369,184.056 337.994,182.958 339.183,184.096 C 338.865,185.419 338.58,186.778 337.952,187.791 C 336.805,187.81 336.005,187.48 335.181,187.175 C 335.793,185.628 335.105,184.925 334.872,183.48 z " style="fill: rgb(255, 255, 255);" id="path121"/>
<path d="M 272.365,189.638 C 273.224,187.932 273.386,185.528 274.52,184.096 C 277.225,185.433 274.302,189.143 272.365,189.638 z " style="fill: rgb(255, 255, 255);" id="path123"/>
<path d="M 265.59,184.404 C 265.3,189.882 262.518,198.57 266.206,204.111 C 260.414,200.892 264.91,192.302 263.435,186.868 C 264.028,185.921 264.292,184.646 265.59,184.404 z " style="fill: rgb(255, 255, 255);" id="path125"/>
<path d="M 256.661,185.635 C 255.405,185.508 254.719,185.95 254.814,187.175 C 253.942,186.465 254.51,185.909 253.582,185.02 C 255.051,185.244 256.354,184.083 256.661,185.635 z " style="fill: rgb(255, 255, 255);" id="path127"/>
<path d="M 260.972,185.02 C 261.686,184.922 262.154,185.069 262.512,185.328 C 262.73,186.47 261.986,186.649 262.204,187.791 C 261.652,187.83 261.555,187.414 260.973,187.483 C 262.376,186.725 260.69,186.394 260.972,185.02 z " style="fill: rgb(255, 255, 255);" id="path129"/>
<path d="M 280.062,187.175 C 278.583,192.984 275.622,197.309 275.443,204.419 C 274.298,204.024 273.623,203.16 272.672,202.571 C 275.074,198.198 276.526,192.294 276.983,186.867 C 277.735,186.269 279.641,186.489 280.062,187.175 z " style="fill: rgb(255, 255, 255);" id="path131"/>
<path d="M 256.045,187.791 C 256.631,187.923 256.818,188.454 257.585,188.407 C 256.895,189.965 257.963,191.573 257.277,192.718 C 256.066,192.251 254.705,192.22 253.582,192.41 C 253.505,194.129 256.549,192.727 257.277,193.641 C 256.93,195.575 253.709,193.335 252.35,194.257 C 252.221,192.999 253.364,193.013 252.966,191.486 C 253.745,191.362 255.088,192.057 256.661,191.486 C 256.564,190.146 256.305,188.967 256.045,187.791 z " style="fill: rgb(255, 255, 255);" id="path133"/>
<path d="M 255.429,190.562 C 254.429,190.383 253.996,190.771 253.274,190.87 C 252.627,189.509 255.742,189.307 253.89,188.714 C 254.66,187.117 255.436,189.484 255.429,190.562 z " style="fill: rgb(255, 255, 255);" id="path135"/>
<path d="M 275.136,188.099 C 275.835,188.427 275.253,190.035 275.444,190.87 C 274.056,190.256 274.872,189.337 273.596,190.562 C 273.432,189.063 274.824,189.121 275.136,188.099 z " style="fill: rgb(255, 255, 255);" id="path137"/>
<path d="M 296.69,189.331 C 294.844,191.385 292.941,193.382 291.148,195.489 C 289.657,195.338 289.079,194.274 288.377,193.333 C 291.232,192.545 294.578,186.898 296.69,189.331 z " style="fill: rgb(255, 255, 255);" id="path139"/>
<path d="M 340.106,189.022 C 342.142,189.448 342.577,191.478 343.184,193.333 C 341.208,192.848 340.216,191.375 340.106,189.022 z " style="fill: rgb(255, 255, 255);" id="path141"/>
<path d="M 275.136,192.717 C 275.189,194.309 273.851,194.511 272.981,195.18 C 272.507,194.654 273.088,194.059 272.673,193.025 C 273.702,194.128 274.106,191.615 275.136,192.717 z " style="fill: rgb(255, 255, 255);" id="path143"/>
<path d="M 352.115,198.568 C 348.744,198.81 342.422,198.354 341.646,194.565 C 345.792,194.032 348.057,197.992 352.115,198.568 z " style="fill: rgb(255, 255, 255);" id="path145"/>
<path d="M 287.145,194.565 C 288.955,194.5 289.024,196.176 290.224,196.72 C 289.058,202.225 285.465,205.304 282.526,209.037 C 281.828,207.169 280.131,206.299 278.831,205.034 C 284.522,204.465 286.432,200.113 287.145,194.565 z " style="fill: rgb(255, 255, 255);" id="path147"/>
<path d="M 264.975,196.104 C 265.332,196.362 265.801,196.51 266.515,196.412 C 267.17,197.659 266.081,198.513 266.207,200.107 C 265.352,199.217 265.205,197.619 264.975,196.104 z " style="fill: rgb(255, 255, 255);" id="path149"/>
<path d="M 337.335,200.107 C 337.642,201.851 336.305,201.951 336.719,203.802 C 335.548,203.965 334.694,204.445 333.64,204.726 C 332.094,201.591 335.14,199.43 337.335,200.107 z " style="fill: rgb(255, 255, 255);" id="path151"/>
<path d="M 340.106,202.879 C 339.055,204.498 337.442,205.552 337.335,208.113 C 337.372,209.525 339.961,209.64 338.875,211.192 C 334.978,210.227 336.115,201.831 340.106,202.879 z " style="fill: rgb(255, 255, 255);" id="path153"/>
<path d="M 248.655,202.879 C 248.684,204.409 250.859,204.76 252.658,205.342 C 251.846,206.756 248.994,205.19 248.039,204.726 C 248.467,204.333 248.228,203.272 248.655,202.879 z " style="fill: rgb(255, 255, 255);" id="path155"/>
<path d="M 347.188,205.342 C 346.796,206.079 346.184,206.596 345.033,206.574 C 344.902,205.987 344.154,206.017 344.417,205.034 C 345.129,204.413 346.779,204.72 347.188,205.342 z " id="path157"/>
<path d="M 268.362,209.961 C 266.091,209.555 265.706,209.95 264.051,210.577 C 263.316,209.362 262.998,207.729 263.127,205.65 C 265.995,203.858 268.007,207.29 268.362,209.961 z " style="fill: rgb(255, 255, 255);" id="path159"/>
<path d="M 276.368,205.342 C 276.081,206.903 275.889,208.558 274.828,209.345 C 274.107,208.441 272.38,209.017 271.748,208.729 C 271.432,204.638 274.335,206.01 276.368,205.342 z " style="fill: rgb(255, 255, 255);" id="path161"/>
<path d="M 333.948,205.342 C 334.446,205.256 334.477,205.633 334.872,205.65 C 335.032,207.555 332.539,206.807 333.025,209.037 C 334.077,209.268 333.416,207.786 334.565,208.113 C 335.072,209.572 332.476,209.695 334.256,210.576 C 333.79,211.034 332.904,211.072 332.101,211.192 C 332.188,210.388 332.205,209.651 331.177,209.961 C 332.434,208.755 333.173,207.03 333.948,205.342 z " style="fill: rgb(255, 255, 255);" id="path163"/>
<path d="M 342.262,205.65 C 343.437,205.81 343.832,206.749 343.802,208.113 C 342.27,209.988 338.514,206.521 341.339,205.958 C 341.013,207.105 341.987,206.952 342.263,207.498 C 343.101,207.214 341.832,206.535 342.262,205.65 z " id="path165"/>
<path d="M 350.883,206.574 C 349.668,206.769 348.292,207.674 347.496,206.574 C 347.701,205.5 350.791,205.082 350.883,206.574 z " id="path167"/>
<path d="M 277.599,206.882 C 278.215,206.882 278.831,206.882 279.447,206.882 C 280.097,208.078 281.55,208.474 281.294,210.577 C 280.229,210.948 279.091,211.248 277.599,211.193 C 276.683,209.444 276.923,208.922 277.599,206.882 z " style="fill: rgb(255, 255, 255);" id="path169"/>
<path d="M 320.399,206.882 C 320.646,207.045 320.899,207.203 321.323,207.19 C 321.663,208.86 320.488,211.136 318.244,211.193 C 317.845,213.029 319.399,212.912 320.399,213.348 C 321.122,213.25 321.087,212.395 321.63,212.117 C 321.859,211.169 320.785,211.525 321.014,210.577 C 322.319,209.931 322.55,208.212 324.709,208.422 C 324.16,209.412 322.683,209.475 322.554,210.885 C 325.288,210.929 328.821,207.531 331.484,207.498 C 330.471,210.899 326.315,211.156 325.017,214.272 C 323.675,214.69 323.904,213.539 323.169,213.348 C 322.112,213.523 322.1,214.743 321.321,215.196 C 319.613,214.273 319.534,215.255 317.626,214.888 C 317.473,212.27 314.917,212.054 312.699,211.501 C 315.011,209.705 320.629,211.217 320.399,206.882 z " style="fill: rgb(255, 255, 255);" id="path171"/>
<path d="M 261.28,208.421 C 262.438,209.033 263.242,210.852 262.511,212.424 C 260.718,211.862 261.254,210.332 261.28,208.421 z " style="fill: rgb(255, 255, 255);" id="path173"/>
<path d="M 344.725,208.729 C 346.841,208.563 348.203,209.152 349.037,210.269 C 348.999,211.053 348.589,211.463 347.806,211.501 C 346.851,211.429 346.845,210.409 346.575,209.653 C 345.763,209.971 344.562,210.141 344.725,208.729 z " id="path175"/>
<path d="M 251.734,209.961 C 251.729,211.3 251.632,212.732 252.042,213.656 C 249.981,214.476 247.571,214.166 248.039,211.193 C 249.008,211.046 249.243,211.631 249.887,211.809 C 249.813,212.351 249.357,212.511 248.655,212.425 C 248.937,212.965 249.228,213.495 250.195,213.348 C 250.698,212.517 250.16,212.153 250.811,211.193 C 250.285,210.185 249.076,210.777 248.04,210.885 C 248.09,210.527 247.972,210.337 247.732,210.269 C 247.986,209.238 250.206,210.35 251.734,209.961 z " style="fill: rgb(255, 255, 255);" id="path177"/>
<path d="M 276.06,213.04 C 274.389,213.524 272.591,213.882 271.133,214.58 C 269.846,213.229 270.416,211.47 271.133,209.961 C 273.508,209.485 276.296,210.019 276.06,213.04 z " style="fill: rgb(255, 255, 255);" id="path179"/>
<path d="M 268.669,213.964 C 267.144,214.19 264.449,215.1 263.435,213.964 C 263.782,210.906 268.944,209.526 268.669,213.964 z " style="fill: rgb(255, 255, 255);" id="path181"/>
<path d="M 336.411,212.732 C 337.253,211.811 338.446,213.143 339.798,212.732 C 339.507,213.975 338.299,213.385 338.258,214.272 C 337.591,213.81 337.542,212.731 336.411,212.732 z " style="fill: rgb(255, 255, 255);" id="path183"/>
<path d="M 342.262,213.656 C 345.425,213.96 349.284,214.377 349.96,217.967 C 346.821,219.399 343.852,215.779 342.262,213.656 z " style="fill: rgb(255, 255, 255);" id="path185"/>
<path d="M 264.051,215.811 C 261.586,216.822 257.614,215.415 256.353,216.119 C 257.482,215.145 262.693,214.362 264.051,215.811 z " style="fill: rgb(255, 255, 255);" id="path187"/>
<path d="M 317.013,216.119 C 317.995,215.855 317.965,216.603 318.553,216.735 C 317.971,217.286 317.533,218.277 319.169,217.967 C 319.292,221.596 318.104,223.697 315.166,223.509 C 314.97,222.171 314.305,222.219 313.011,222.585 C 312.791,219.209 314.922,218.583 316.706,218.274 C 317.129,217.877 317.009,216.937 317.013,216.119 z M 313.934,220.122 C 313.966,221.424 314.763,221.962 315.782,222.277 C 315.836,220.484 317.949,220.748 318.245,219.198 C 317.663,219.164 318.031,218.18 317.321,218.274 C 315.979,218.953 315.508,221.408 313.934,220.122 z " style="fill: rgb(255, 255, 255);" id="path189"/>
<path d="M 267.13,216.427 C 266.645,217.687 266.117,218.904 266.206,220.738 C 264.885,219.852 265.383,216.796 267.13,216.427 z " style="fill: rgb(255, 255, 255);" id="path191"/>
<path d="M 272.057,216.427 C 272.345,217.748 272.031,221.117 270.517,221.662 C 270.627,219.514 271.288,217.917 272.057,216.427 z " id="path193"/>
<path d="M 317.32,218.274 C 318.03,218.18 317.662,219.164 318.244,219.198 C 317.947,220.748 315.835,220.484 315.781,222.277 C 314.761,221.962 313.966,221.424 313.933,220.122 C 315.508,221.408 315.979,218.953 317.32,218.274 z " id="path195"/>
<path d="M 311.162,218.583 C 313.171,219.258 311.66,223.809 309.931,222.586 C 309.931,222.278 309.931,221.97 309.931,221.662 C 310.543,221.149 310.323,221.69 311.162,221.662 C 310.78,220.89 309.944,219.136 311.162,218.583 z " style="fill: rgb(255, 255, 255);" id="path197"/>
<path d="M 256.969,219.198 C 257.326,219.456 257.795,219.604 258.509,219.506 C 257.638,220.645 257.814,219.999 258.201,221.661 C 257.688,221.661 257.175,221.661 256.661,221.661 C 256.711,221.303 256.593,221.113 256.353,221.045 C 257.402,220.645 256.498,219.729 256.969,219.198 z " id="path199"/>
<path d="M 359.505,219.814 C 360.508,220.786 357.936,223.324 357.35,224.741 C 356.57,224.331 357.802,223.374 357.659,222.586 C 357.753,221.961 356.768,222.649 356.735,222.894 C 355.773,221.811 357.3,220.6 357.965,220.123 C 358.898,220.499 357.748,221.298 357.657,221.663 C 358.653,221.425 359.269,220.81 359.505,219.814 z " style="fill: rgb(255, 255, 255);" id="path201"/>
<path d="M 338.566,221.046 C 338.397,221.729 339.154,221.484 339.181,221.97 C 335.509,232.706 320.853,235.264 310.238,237.058 C 309.997,234.867 311.073,233.993 312.086,233.055 C 320.797,233.494 328.175,227.754 336.411,225.049 C 329.262,224.084 322.01,232.855 314.549,230.591 C 314.414,229.532 314.671,228.865 314.858,228.128 C 323.629,228.664 327.707,219.06 335.18,222.277 C 336.957,222.515 336.709,220.728 338.566,221.046 z " style="fill: rgb(255, 255, 255);" id="path203"/>
<path d="M 343.186,222.585 C 343.7,222.585 344.212,222.585 344.726,222.585 C 344.539,224.221 343.093,225.978 341.955,225.664 C 342.031,224.305 343.088,223.925 343.186,222.585 z " id="path205"/>
<path d="M 265.283,223.201 C 267.698,237.772 266.84,252.116 266.823,268.157 C 265.809,269.504 264.965,271.02 263.128,271.544 C 265.066,256.199 262.175,238.814 265.283,223.201 z " style="fill: rgb(255, 255, 255);" id="path207"/>
<path d="M 313.934,223.817 C 314.765,223.909 314.487,225.112 315.165,225.357 C 314.233,226.068 314.453,227.929 313.01,228.128 C 313.12,227.211 313.5,226.566 313.934,225.973 C 313.12,224.98 311.913,226.188 312.394,227.513 C 310.745,227.266 311.033,229.528 308.391,229.053 C 308.346,227.878 309.166,227.57 309.316,226.59 C 311.869,226.795 312.805,225.648 313.934,223.817 z " style="fill: rgb(255, 255, 255);" id="path209"/>
<path d="M 319.168,225.973 C 318.578,226.525 316.33,227.017 315.473,226.281 C 316.056,224.578 320.284,222.557 319.168,225.973 z " style="fill: rgb(255, 255, 255);" id="path211"/>
<path d="M 250.502,225.049 C 250.455,226.452 250.248,226.257 250.502,227.512 C 248.375,226.409 246.378,228.707 245.883,225.972 C 247.19,225.896 247.541,226.777 248.962,226.588 C 249.2,225.118 247.704,225.383 246.499,225.356 C 246.848,223.969 249.542,225.049 250.502,225.049 z " style="fill: rgb(255, 255, 255);" id="path213"/>
<path d="M 339.798,224.741 C 339.706,226.189 338.491,226.513 337.95,227.512 C 336.871,226.11 338.791,225.078 339.798,224.741 z " style="fill: rgb(255, 255, 255);" id="path215"/>
<path d="M 371.514,227.204 C 370.402,227.676 368.421,226.696 367.82,225.664 C 368.95,225.175 371.317,225.768 371.514,227.204 z " id="path217"/>
<path d="M 368.126,227.204 C 369.183,227.687 370.251,228.158 371.206,228.744 C 370.541,230.581 369.228,228.503 367.819,228.436 C 367.688,227.792 368.03,227.62 368.126,227.204 z " id="path219"/>
<path d="M 347.188,227.82 C 347.234,228.584 347.246,229.315 346.573,229.36 C 345.751,228.689 345.156,228.962 344.418,228.744 C 344.555,227.256 346.004,227.554 347.188,227.82 z " id="path221"/>
<path d="M 246.192,227.82 C 247.9,228.546 249.315,227.73 250.503,229.052 C 248.813,228.894 246.506,229.353 246.192,227.82 z " style="fill: rgb(255, 255, 255);" id="path223"/>
<path d="M 307.159,228.436 C 308.889,229.391 306.813,230.646 306.543,231.516 C 305.477,230.284 306.511,229.439 307.159,228.436 z " style="fill: rgb(255, 255, 255);" id="path225"/>
<path d="M 371.514,231.207 C 370.971,233.045 367.496,231.027 367.511,229.359 C 368.581,229.114 370.188,230.711 371.514,231.207 z " id="path227"/>
<path d="M 245.576,229.667 C 246.973,230.22 249.388,229.756 250.503,230.591 C 250.082,231.428 245.979,230.875 245.576,229.667 z " style="fill: rgb(255, 255, 255);" id="path229"/>
<path d="M 310.546,232.747 C 309.204,233.64 308.781,235.382 309.315,237.366 C 304.864,236.396 309.092,226.392 310.546,232.747 z " style="fill: rgb(255, 255, 255);" id="path231"/>
<path d="M 347.804,231.823 C 347.875,233.001 346.112,233.363 345.341,232.747 C 344.827,230.791 347.5,230.359 347.804,231.823 z " id="path233"/>
<path d="M 365.047,232.747 C 366.701,235.116 371.422,235.993 371.821,238.598 C 368.698,237.307 366.478,235.113 363.507,233.671 C 364.861,232.581 363.277,232.482 362.583,231.823 C 363.08,230.472 366.113,231.657 367.202,230.899 C 366.442,233.078 369.413,233.134 370.589,234.286 C 371.165,233.645 370.952,232.694 372.129,233.362 C 372.238,235.005 370.799,234.183 371.513,235.825 C 369.125,235.032 367.466,233.51 365.047,232.747 z " id="path235"/>
<path d="M 258.816,232.131 C 258.82,233.982 256.441,233.208 256.045,232.131 C 256.688,231.524 258.09,231.896 258.816,232.131 z " id="path237"/>
<path d="M 332.408,232.438 C 332.118,234.524 329.347,232.236 329.945,235.209 C 327.858,233.39 330.41,231.979 332.408,232.438 z " style="fill: rgb(255, 255, 255);" id="path239"/>
<path d="M 250.502,233.979 C 250.72,235.121 249.976,235.3 250.194,236.442 C 249.257,236.347 248.353,235.295 247.423,236.134 C 247.211,236.962 248.06,236.729 248.347,237.058 C 248.308,237.738 247.041,237.188 246.499,237.366 C 247.042,236.02 246.138,235.614 244.959,234.595 C 246.681,234.644 248.091,235.856 249.578,235.211 C 249.077,233.557 245.702,234.777 244.959,233.363 C 246.193,233.048 248.832,233.73 250.502,233.979 z " style="fill: rgb(255, 255, 255);" id="path241"/>
<path d="M 305.928,236.134 C 307.441,236.328 305.767,237.795 306.236,238.905 C 305.878,238.855 305.688,238.973 305.62,239.213 C 304.382,238.802 305.606,236.884 305.928,236.134 z " style="fill: rgb(255, 255, 255);" id="path243"/>
<path d="M 350.883,236.75 C 353.054,238.171 354.069,240.75 354.886,243.524 C 352.588,241.993 352.668,239.2 350.883,236.75 z " style="fill: rgb(255, 255, 255);" id="path245"/>
<path d="M 366.279,236.75 C 368.49,237.618 370.064,239.123 372.129,240.137 C 370.188,241.344 367.069,238.714 366.279,236.75 z " id="path247"/>
<path d="M 342.877,237.058 C 345.09,237.558 345.727,237.724 347.496,238.598 C 346.828,239.879 345.245,240.247 343.493,240.445 C 343.368,239.298 342.13,238.105 342.877,237.058 z " style="fill: rgb(255, 255, 255);" id="path249"/>
<path d="M 359.505,237.673 C 362.726,242.766 364.43,249.375 367.203,254.916 C 363.531,250.475 360.997,243.271 359.505,237.673 z " id="path251"/>
<path d="M 309.931,238.597 C 311.321,238.814 311.347,242.498 309.316,241.984 C 309.618,240.427 310.594,240.537 309.931,238.597 z " style="fill: rgb(255, 255, 255);" id="path253"/>
<path d="M 366.279,238.905 C 367.584,239.14 368.073,240.19 369.05,240.753 C 369.536,246.785 374.799,253.236 377.056,259.536 C 372.704,254.649 369.411,246.038 366.279,238.905 z " id="path255"/>
<path d="M 269.593,241.061 C 271.22,249.125 270.393,263.974 269.901,273.7 C 269.119,262.911 269.512,250.125 269.593,241.061 z " id="path257"/>
<path d="M 348.42,241.676 C 348.666,242.849 348.901,243.702 347.496,243.831 C 347.727,242.367 345.439,243.425 345.956,241.676 C 346.709,240.919 347.292,241.904 348.42,241.676 z " style="fill: rgb(255, 255, 255);" id="path259"/>
<path d="M 248.963,243.523 C 247.571,243.28 245.728,243.238 244.036,242.6 C 245.156,241.699 248.698,242.158 248.963,243.523 z " id="path261"/>
<path d="M 373.669,242.6 C 374.943,243.735 377.725,244.841 377.056,246.911 C 376.304,246.227 375.618,245.476 374.593,245.064 C 378.389,250.459 383.507,257.627 381.367,266.926 C 381.005,257.48 377.53,248.635 371.513,243.832 C 372.066,242.412 372.86,244.557 373.976,244.448 C 374.758,243.695 373.328,243.792 373.669,242.6 z " id="path263"/>
<path d="M 257.893,243.832 C 258.201,243.832 258.509,243.832 258.817,243.832 C 258.023,246.118 258.741,249.914 256.969,251.222 C 256.85,249.216 258.685,246.864 256.045,246.603 C 256.076,245.819 257.192,245.875 257.585,246.295 C 257.771,245.558 258.027,244.89 257.893,243.832 z " id="path265"/>
<path d="M 355.502,244.447 C 357.779,247.918 359.936,251.509 362.276,254.916 C 359.214,252.231 356.658,249.039 355.502,244.447 z " style="fill: rgb(255, 255, 255);" id="path267"/>
<path d="M 336.104,244.755 C 337.063,246.158 337.439,248.142 337.952,249.989 C 334.541,252.018 329.753,252.67 325.636,253.992 C 327.942,250.962 330.59,245.606 336.104,244.755 z " style="fill: rgb(255, 255, 255);" id="path269"/>
<path d="M 339.798,245.063 C 340.75,245.4 341.45,245.049 341.953,246.294 C 342.314,246.244 342.213,245.732 342.261,245.37 C 343.028,245.323 343.214,245.854 343.801,245.986 C 343.801,246.499 343.801,247.013 343.801,247.526 C 342.294,246.917 340.805,246.458 338.567,247.526 C 338.654,246.589 337.581,246.329 338.258,245.679 C 339.196,245.92 339.833,246.83 339.798,245.063 z " style="fill: rgb(255, 255, 255);" id="path271"/>
<path d="M 303.772,246.295 C 304.08,246.295 304.388,246.295 304.696,246.295 C 304.948,247.881 303.997,248.264 303.772,249.374 C 303.167,248.947 303.396,246.761 303.772,246.295 z " id="path273"/>
<path d="M 372.746,246.295 C 376.524,250.22 378.66,257.41 379.519,263.231 C 377.516,257.331 374.911,252.033 372.746,246.295 z " id="path275"/>
<path d="M 314.549,248.758 C 315.475,248.447 315.094,249.444 315.165,249.989 C 314.754,249.989 314.344,249.989 313.934,249.989 C 313.934,250.297 313.934,250.605 313.934,250.913 C 314.033,251.567 314.887,250.474 315.165,250.297 C 315.685,250.906 315.501,252.219 315.781,253.068 C 314.149,252.442 312.477,251.855 312.702,249.373 C 313.861,249.533 314.104,249.763 314.549,248.758 z " id="path277"/>
<path d="M 365.971,249.066 C 369.037,252.671 372.226,256.153 374.902,260.151 C 370.965,257.416 367.855,253.854 365.971,249.066 z " id="path279"/>
<path d="M 242.189,250.298 C 243.651,250.206 242.222,252.686 243.42,251.838 C 243.838,251.933 243.675,252.609 243.728,253.07 C 243.027,252.847 242.155,252.795 241.572,252.454 C 241.812,251.769 242.22,251.252 242.189,250.298 z " style="fill: rgb(255, 255, 255);" id="path281"/>
<path d="M 355.502,250.914 C 356.881,252.101 357.195,254.353 357.658,256.456 C 356.253,256.527 356.681,254.763 356.118,253.993 C 355.205,254.441 356.523,255.194 356.118,256.149 C 354.355,255.896 353.974,252.839 354.269,251.53 C 354.756,252.172 355.274,252.784 355.5,253.686 C 356.386,253.076 355.396,251.763 355.502,250.914 z " style="fill: rgb(255, 255, 255);" id="path283"/>
<path d="M 306.543,252.146 C 307.618,252.125 308.088,255.401 306.543,255.225 C 306.278,253.942 306.117,253.266 306.543,252.146 z " style="fill: rgb(255, 255, 255);" id="path285"/>
<path d="M 241.881,253.685 C 242.833,254.667 242.401,253.682 243.729,253.685 C 243.761,254.641 242.76,254.563 243.113,255.84 C 242.531,255.229 241.658,255.691 240.958,255.84 C 240.821,254.678 241.564,254.395 241.881,253.685 z " style="fill: rgb(255, 255, 255);" id="path287"/>
<path d="M 290.532,253.993 C 286.203,259.004 279.806,264.616 273.905,269.081 C 278.74,263.345 284.966,259 290.532,253.993 z " id="path289"/>
<path d="M 293.611,256.148 C 293.892,255.608 294.183,255.078 295.151,255.224 C 295.201,255.582 295.083,255.772 294.843,255.84 C 294.852,256.139 295.22,256.079 295.459,256.148 C 295.396,257.522 293.667,257.23 293.303,258.303 C 291.843,257.468 295.354,256.305 293.611,256.148 z " id="path291"/>
<path d="M 284.681,257.072 C 284.14,258.378 283.216,259.302 281.91,259.843 C 281.527,258.728 283.441,257.56 284.681,257.072 z " id="path293"/>
<path d="M 336.104,259.843 C 337.265,259.179 335.998,258.364 336.104,257.072 C 337.404,257.107 337.125,258.72 337.335,259.843 C 336.513,260.56 334.737,260.325 333.948,261.074 C 333.687,259.898 333.428,258.72 333.332,257.379 C 335.318,257.092 335.883,257.258 336.104,259.843 z " style="fill: rgb(255, 255, 255);" id="path295"/>
<path d="M 350.883,257.996 C 352.016,258.403 353.215,258.744 353.654,259.844 C 352.463,260.569 351.06,259.269 350.883,257.996 z " style="fill: rgb(255, 255, 255);" id="path297"/>
<path d="M 323.787,259.843 C 322.475,261.388 323.248,262.787 323.787,264.77 C 322.227,264.584 322.559,262.507 322.247,261.075 C 321.435,260.982 321.236,261.502 321.323,262.307 C 320.585,261.795 319.87,261.48 320.399,260.459 C 321.833,260.558 322.454,259.845 323.787,259.843 z " id="path299"/>
<path d="M 297.922,260.459 C 298.216,262.394 299.342,263.193 298.23,265.078 C 298.207,263.731 296.006,261.357 297.922,260.459 z " id="path301"/>
<path d="M 370.282,260.767 C 371.824,261.483 372.829,262.736 373.669,264.154 C 372.167,263.542 369.943,262.215 370.282,260.767 z " id="path303"/>
<path d="M 279.754,261.691 C 278.362,263.172 277.121,264.805 275.135,265.694 C 276.312,263.996 277.846,262.656 279.754,261.691 z " id="path305"/>
<path d="M 306.543,262.307 C 307.754,262.939 304.573,265.741 303.772,265.386 C 303.901,263.564 306.317,264.031 306.543,262.307 z " id="path307"/>
<path d="M 244.036,263.538 C 244.239,262.616 244.694,263.832 245.268,263.538 C 245.417,265.433 244.72,266.48 244.96,268.465 C 243.453,267.642 244.798,264.412 244.036,263.538 z " style="fill: rgb(255, 255, 255);" id="path309"/>
<path d="M 240.649,265.078 C 241.372,265.177 241.805,265.565 242.804,265.386 C 243.616,266.421 243.408,268.476 243.728,270.005 C 242.213,269.421 240.327,269.534 239.725,268.774 C 240.594,267.826 241.85,269.094 243.112,268.774 C 242.924,267.525 240.995,268.017 240.033,267.542 C 240.102,266.584 241.566,267.022 242.496,266.926 C 242.766,265.424 240.169,266.79 240.649,265.078 z " style="fill: rgb(255, 255, 255);" id="path311"/>
<path d="M 249.579,265.078 C 251.088,265.109 251.866,265.87 252.966,266.31 C 252.82,267.239 249.403,266.485 249.579,265.078 z " id="path313"/>
<path d="M 376.132,265.386 C 377.221,266.216 379.654,267.103 379.212,268.465 C 378.053,267.705 375.882,266.555 376.132,265.386 z " id="path315"/>
<path d="M 328.098,266.925 C 326.057,268.318 323.32,269.367 320.401,269.388 C 322.258,268.359 324.832,267.332 328.098,266.925 z " id="path317"/>
<path d="M 341.338,268.773 C 341.688,269.759 341.964,270.815 341.954,272.16 C 341.107,271.262 341.168,269.456 339.183,269.697 C 339.709,269.197 340.303,268.765 341.338,268.773 z " id="path319"/>
<path d="M 248.347,270.312 C 249.515,269.264 250.785,270.735 251.734,270.928 C 251.036,272.344 248.804,271.067 248.347,270.312 z " id="path321"/>
<path d="M 374.593,275.239 C 373.99,276.278 373.155,277.086 371.822,277.394 C 371.203,275.139 371.971,271.496 368.743,271.852 C 370.142,267.653 373.333,273.604 374.593,275.239 z " style="fill: rgb(255, 255, 255);" id="path323"/>
<path d="M 267.13,272.16 C 267.628,272.073 267.66,272.451 268.054,272.468 C 267.812,273.765 268.233,275.726 266.823,275.855 C 266.664,274.42 266.219,273.109 267.13,272.16 z " id="path325"/>
<path d="M 337.951,273.7 C 338.948,273.319 338.185,274.696 339.182,274.316 C 338.085,275.272 336.291,275.531 334.564,275.856 C 334.689,275.263 335.756,275.613 335.487,274.624 C 336.843,275.062 337.419,274.746 337.951,273.7 z " id="path327"/>
<path d="M 365.355,273.7 C 365.834,274.853 365.822,277.825 365.663,278.626 C 365.059,278.204 365.497,276.74 365.047,276.163 C 364.522,276.149 364.25,276.392 364.123,276.779 C 363.407,276.317 363.653,276.026 363.815,275.239 C 364.753,276.84 364.902,274.4 365.355,273.7 z " id="path329"/>
<path d="M 350.268,274.007 C 350.156,275.577 344.111,278.073 341.338,278.01 C 343.422,275.783 347.89,275.94 350.268,274.007 z " id="path331"/>
<path d="M 307.467,275.547 C 309.91,275.875 311.668,276.888 313.933,277.395 C 313.787,278.648 315.078,279.484 314.242,280.474 C 313.37,280.217 313.876,278.582 313.318,278.011 C 312.624,278.24 313.198,279.738 313.009,280.474 C 312.354,279.692 312.096,278.513 311.469,277.703 C 310.136,277.601 309.43,278.127 309.006,278.934 C 307.898,278.4 307.738,276.918 307.467,275.547 z " style="fill: rgb(255, 255, 255);" id="path333"/>
<path d="M 260.664,276.163 C 261.751,281.574 260.189,286.883 259.124,291.867 C 258.645,287.645 260.692,280.867 260.664,276.163 z " id="path335"/>
<path d="M 246.5,277.395 C 247.767,277.462 249.12,277.444 249.579,278.319 C 249.085,279.364 247.31,279.129 246.192,279.55 C 246.013,278.55 246.401,278.117 246.5,277.395 z " style="fill: rgb(255, 255, 255);" id="path337"/>
<path d="M 324.71,277.703 C 324.52,279.629 322.381,278.397 321.323,278.934 C 321.693,277.765 323.041,277.573 324.71,277.703 z " id="path339"/>
<path d="M 367.819,278.01 C 368.504,278.249 369.488,278.188 369.666,278.934 C 369.56,279.752 368.858,279.973 368.126,280.166 C 367.886,279.506 367.379,278.445 367.819,278.01 z " style="fill: rgb(255, 255, 255);" id="path341"/>
<path d="M 377.056,279.858 C 378.327,280.332 378.522,281.883 378.596,283.553 C 377.367,284.48 376.575,285.843 374.902,286.324 C 372.249,283.381 375.324,281.673 377.056,279.858 z " style="fill: rgb(255, 255, 255);" id="path343"/>
<path d="M 241.573,283.245 C 240.377,283.815 237.987,282.938 237.262,282.013 C 238.299,281.709 240.516,282.575 241.573,283.245 z " id="path345"/>
<path d="M 267.438,281.706 C 268.055,282.716 268.463,285.914 267.13,286.632 C 267.183,284.33 267.279,283.432 267.438,281.706 z " id="path347"/>
<path d="M 355.502,283.245 C 355.662,284.636 354.278,284.485 354.272,285.708 C 353.2,285.246 353.659,284.17 352.117,284.785 C 352.488,282.83 354.28,284.095 355.502,283.245 z " id="path349"/>
<path d="M 238.802,284.785 C 239.863,285.367 240.839,286.032 242.805,285.708 C 242.451,286.571 242.451,287.309 242.805,288.171 C 240.966,288.014 236.543,287.898 235.723,285.708 C 236.809,285.751 237.099,286.589 238.186,286.632 C 239.448,286.385 238.026,285.364 238.802,284.785 z " style="fill: rgb(255, 255, 255);" id="path351"/>
<path d="M 243.42,285.092 C 243.004,288.229 246.062,289.861 246.499,291.866 C 245.786,291.553 245.066,291.246 244.959,290.326 C 243.64,290.257 243.704,291.35 242.496,290.634 C 243.339,288.84 243.227,286.909 243.42,285.092 z " style="fill: rgb(255, 255, 255);" id="path353"/>
<path d="M 283.45,285.708 C 284.055,286.808 283.354,287.398 282.526,287.864 C 281.755,287.916 281.562,287.391 281.294,286.94 C 280.321,286.788 281.18,288.468 280.063,288.171 C 279.805,287.814 279.657,287.346 279.755,286.631 C 280.778,286.116 282.276,286.075 283.45,285.708 z " style="fill: rgb(255, 255, 255);" id="path355"/>
<path d="M 368.126,286.016 C 370.514,285.887 370.683,287.975 371.206,289.711 C 370.6,290.132 369.447,290.005 368.743,290.327 C 368.316,289.111 368.297,287.488 368.126,286.016 z " style="fill: rgb(255, 255, 255);" id="path357"/>
<path d="M 257.893,286.94 C 258.747,289.441 257.379,292.376 257.277,294.946 C 256.585,292.607 257.597,289.316 257.893,286.94 z " id="path359"/>
<path d="M 301.925,286.94 C 302.765,286.716 302.545,287.552 303.156,287.556 C 302.255,289.692 304.575,290.298 303.772,292.175 C 302.738,290.848 302.15,289.075 301.925,286.94 z " style="fill: rgb(255, 255, 255);" id="path361"/>
<path d="M 299.153,287.556 C 300.701,288.473 297.295,292.459 299.461,294.022 C 300.284,292.96 298.556,290.237 300.384,289.711 C 302.349,290.791 301.838,295.052 301.924,297.101 C 302.63,297.943 305.6,298.135 304.695,299.564 C 303.511,300.447 303.486,298.043 301.616,298.64 C 301.42,300.195 303.059,301.126 302.232,302.335 C 299.023,299.544 296.44,292.545 299.153,287.556 z M 301.001,298.025 C 300.708,296.675 300.414,295.327 299.461,294.638 C 298.863,296.006 299.603,297.733 301.001,298.025 z " style="fill: rgb(255, 255, 255);" id="path363"/>
<path d="M 260.972,288.171 C 261.987,290.117 260.724,292.433 260.664,294.33 C 259.413,293.179 260.926,290.021 260.972,288.171 z " id="path365"/>
<path d="M 264.975,289.711 C 265.661,290.733 266.017,290.169 267.13,290.635 C 267.137,291.361 266.6,291.542 266.822,292.483 C 267.183,292.433 267.082,291.921 267.13,291.559 C 267.798,291.507 267.27,292.651 267.438,293.099 C 265.75,293.157 265.688,294.838 264.359,295.255 C 263.325,294.973 264.206,294.682 264.051,293.715 C 266.933,293.918 265.028,291.055 263.743,291.868 C 263.869,290.864 264.386,290.251 264.975,289.711 z " style="fill: rgb(255, 255, 255);" id="path367"/>
<path d="M 268.054,291.251 C 268.67,291.251 269.285,291.251 269.902,291.251 C 269.854,292.633 271.047,292.774 271.442,293.714 C 269.933,293.348 269.155,295.31 268.055,294.33 C 267.562,293.118 269.385,294.223 269.286,293.406 C 269.699,291.864 267.501,292.932 268.054,291.251 z " style="fill: rgb(255, 255, 255);" id="path369"/>
<path d="M 339.49,291.251 C 340.162,291.195 340.469,291.503 340.414,292.174 C 338.819,292.192 338.502,294.175 337.027,293.406 C 337.824,291.379 338.857,292.651 339.49,291.251 z " id="path371"/>
<path d="M 348.42,293.406 C 348.962,293.48 349.122,293.936 349.036,294.637 C 346.453,294.464 345.084,296.983 343.494,296.793 C 343.861,294.39 347.453,295.211 348.42,293.406 z " id="path373"/>
<path d="M 299.461,294.638 C 300.414,295.327 300.708,296.676 301.001,298.025 C 299.603,297.733 298.863,296.006 299.461,294.638 z " id="path375"/>
<path d="M 357.35,294.638 C 358.716,295.193 359.769,296.584 361.045,295.562 C 361.507,298.077 358.089,296.712 357.966,298.641 C 356.782,298.284 357.584,295.943 357.35,294.638 z " style="fill: rgb(255, 255, 255);" id="path377"/>
<path d="M 375.209,295.562 C 376.769,298.535 374.492,301.141 373.053,302.952 C 371.948,302.519 371.008,301.919 370.899,300.489 C 372.752,301.126 375.633,299.583 374.593,297.41 C 373.975,298.229 373.257,298.947 372.439,299.565 C 371.313,299.498 371.257,299.142 370.284,299.565 C 370.621,298.196 368.925,297.936 369.668,297.102 C 371.225,296.207 372.363,297.854 374.287,296.794 C 374.727,295.326 371.998,297.03 372.439,295.562 C 373.081,294.955 374.482,295.326 375.209,295.562 z " style="fill: rgb(255, 255, 255);" id="path379"/>
<path d="M 340.106,298.333 C 334.195,304.637 328.042,310.697 320.707,315.576 C 307.747,306.326 333.477,301.536 340.106,298.333 z " style="fill: rgb(255, 255, 255);" id="path381"/>
<path d="M 256.969,298.641 C 258.176,300.381 257.64,302.652 258.2,305.415 C 257.56,303.547 256.481,300.627 256.969,298.641 z " id="path383"/>
<path d="M 365.971,299.873 C 367.946,300.801 366.167,305.12 366.587,306.646 C 365.66,304.919 365.898,301.996 365.971,299.873 z " id="path385"/>
<path d="M 307.467,300.488 C 308.405,301.184 309.804,302.743 309.315,303.875 C 308.352,303.093 307.532,302.168 307.467,300.488 z " style="fill: rgb(255, 255, 255);" id="path387"/>
<path d="M 346.572,301.104 C 345.993,302.68 344.549,303.391 343.184,304.184 C 343.841,302.684 345.102,301.788 346.572,301.104 z " id="path389"/>
<path d="M 364.74,302.336 C 365.454,303.777 364.845,306.541 365.048,308.494 C 363.832,307.693 364.441,303.648 364.74,302.336 z " id="path391"/>
<path d="M 333.024,311.266 C 332.894,309.614 331.8,307.923 332.715,306.954 C 333.094,307.089 333.347,307.35 333.331,307.878 C 334.531,307.568 333.379,306.818 333.639,305.723 C 334.909,305.966 334.218,304.249 335.487,304.493 C 336.003,305.004 335.732,306.301 335.795,307.264 C 337.839,307.041 335.558,304.219 336.719,302.952 C 337.912,303.71 337.058,306.514 337.643,307.879 C 335.601,309.357 334.108,310.146 333.024,311.266 z " style="fill: rgb(255, 255, 255);" id="path393"/>
<path d="M 361.353,302.951 C 362.393,305.097 361.205,307.757 361.969,310.342 C 360.394,308.874 361.492,305.109 361.353,302.951 z " id="path395"/>
<path d="M 309.314,304.184 C 310.759,304.542 310.85,307.401 309.622,308.188 C 309.857,306.516 309.135,305.8 309.314,304.184 z " style="fill: rgb(255, 255, 255);" id="path397"/>
<path d="M 376.749,306.646 C 378.378,306.554 377.569,309.492 377.365,310.34 C 376.186,309.98 376.265,307.773 376.749,306.646 z " style="fill: rgb(255, 255, 255);" id="path399"/>
<path d="M 263.127,308.802 C 262.741,309.953 261.002,310.343 259.74,309.727 C 260.83,309.277 261.842,308.162 263.127,308.802 z " style="fill: rgb(255, 255, 255);" id="path401"/>
<path d="M 349.959,308.802 C 349.959,309.213 349.959,309.623 349.959,310.033 C 348.374,309.577 348.635,310.968 347.188,310.648 C 347.44,309.361 348.624,309.006 349.959,308.802 z " id="path403"/>
<path d="M 306.235,309.727 C 306.683,310.305 308.251,309.764 308.698,310.342 C 307.983,310.92 307.434,311.663 308.082,312.805 C 307.34,312.68 307.413,313.367 306.542,313.115 C 305.785,311.965 306.14,311.402 306.235,309.727 z " id="path405"/>
<path d="M 373.053,312.189 C 372.949,312.808 371.957,315.327 373.669,314.96 C 373.403,316.234 372.939,317.309 371.822,317.731 C 371.492,316.582 372.587,316.854 372.438,315.883 C 371.993,315.132 370.958,317.413 370.283,316.499 C 370.181,314.132 370.723,310.682 373.053,312.189 z " style="fill: rgb(255, 255, 255);" id="path407"/>
<path d="M 303.464,316.5 C 304.247,316.537 304.658,316.948 304.695,317.73 C 305.834,316.902 306.813,317.812 307.466,316.5 C 309.667,318.154 309.839,323.283 313.008,322.966 C 313.289,323.506 313.113,324.503 313.624,324.815 C 312.755,325.959 312.423,323.987 311.776,323.891 C 306.883,326.25 302.348,320.182 303.464,316.5 z " style="fill: rgb(255, 255, 255);" id="path409"/>
<path d="M 301.925,320.811 C 303.654,321.328 303.04,323.296 304.696,323.276 C 304.696,323.891 304.696,324.506 304.696,325.124 C 303.234,324.223 302.335,322.761 301.925,320.811 z " style="fill: rgb(255, 255, 255);" id="path411"/>
<path d="M 354.271,322.352 C 355.795,322.612 355.067,326.51 354.271,327.278 C 354.256,325.854 354.443,324.233 353.655,323.584 C 352.946,324.414 353.546,326.554 353.346,327.896 C 352.07,327.736 353.243,325.125 352.422,324.508 C 351.276,324.828 351.875,327.371 352.114,328.203 C 351.644,328.776 349.473,329.237 349.034,328.817 C 349.585,328.041 353.082,325.819 350.265,325.43 C 350.826,323.627 353.341,323.782 354.271,322.352 z " style="fill: rgb(255, 255, 255);" id="path413"/>
<path d="M 374.593,323.582 C 374.305,324.629 373.016,324.673 373.363,326.353 C 372.955,325.529 372.428,324.824 372.131,323.888 C 372.597,323.406 374.125,322.216 374.593,323.582 z " style="fill: rgb(255, 255, 255);" id="path415"/>
<path d="M 314.549,325.122 C 315.758,325.555 315.231,328.357 313.933,328.201 C 312.744,327.312 314.422,326.447 314.549,325.122 z " style="fill: rgb(255, 255, 255);" id="path417"/>
<path d="M 312.394,327.277 C 313.038,329.549 307.1,328.267 305.621,327.892 C 307.066,326.25 310.337,328.825 312.394,327.277 z " style="fill: rgb(255, 255, 255);" id="path419"/>
<path d="M 364.124,329.125 C 364.432,329.125 364.74,329.125 365.048,329.125 C 364.264,330.668 365.07,334.502 364.74,335.591 C 363.352,334.618 364.499,331.109 364.124,329.125 z " style="fill: rgb(255, 255, 255);" id="path421"/>
<path d="M 322.247,330.664 C 322.243,332.123 319.6,332.712 318.86,331.588 C 319.074,330.441 321.255,330.055 322.247,330.664 z " id="path423"/>
<path d="M 353.039,333.436 C 353.347,333.436 353.655,333.436 353.963,333.436 C 353.141,334.922 354.696,336.874 353.039,337.44 C 353.039,336.104 353.039,334.77 353.039,333.436 z " style="fill: rgb(255, 255, 255);" id="path425"/>
<path d="M 351.499,333.743 C 351.997,333.656 352.029,334.034 352.423,334.051 C 352.339,335.917 352.227,337.756 351.807,339.286 C 351.094,338.049 351.7,335.492 351.499,333.743 z " style="fill: rgb(255, 255, 255);" id="path427"/>
<path d="M 334.564,336.822 C 333.564,337.001 333.13,336.611 332.408,336.513 C 332.346,333.948 334.861,334.589 334.564,336.822 z " style="fill: rgb(255, 255, 255);" id="path429"/>
<path d="M 367.203,338.67 C 368.731,339.91 367.257,342.343 367.511,345.443 C 366.19,344.229 367.653,340.084 367.203,338.67 z " style="fill: rgb(255, 255, 255);" id="path431"/>
<path d="M 370.59,341.441 C 371.595,341.59 372.216,345.189 370.59,345.134 C 370.59,344.724 370.59,344.314 370.59,343.904 C 370.028,344.368 369.866,345.232 369.36,345.752 C 368.32,345.211 369.389,343.934 369.051,342.365 C 369.766,341.621 369.875,342.845 370.591,342.98 C 370.59,342.468 370.59,341.954 370.59,341.441 z " style="fill: rgb(255, 255, 255);" id="path433"/>
<path d="M 356.118,343.904 C 357.084,344.847 356.094,347.045 356.426,349.138 C 355.582,348.163 354.651,349.109 353.655,348.523 C 354.47,347.593 353.699,345.077 354.885,344.519 C 354.858,345.835 354.268,346.775 354.885,347.907 C 356.214,347.49 355.441,344.973 356.118,343.904 z " style="fill: rgb(255, 255, 255);" id="path435"/>
<path d="M 352.731,344.213 C 353.039,344.213 353.346,344.213 353.655,344.213 C 353.523,345.62 353.185,346.823 353.346,348.524 C 351.488,348.055 353.104,345.912 352.731,344.213 z " style="fill: rgb(255, 255, 255);" id="path437"/>
<path d="M 372.746,348.523 C 374.262,350.291 375.457,352.379 376.133,354.989 C 374.599,353.413 372.804,350.561 372.746,348.523 z " id="path439"/>
<path d="M 374.593,349.139 C 376.883,350.749 377.214,354.321 378.905,356.53 C 378.42,357.539 377.718,357.16 378.289,358.686 C 376.748,358.481 376.423,357.061 376.133,355.606 C 376.973,355.381 376.753,356.217 377.365,356.221 C 377.173,353.302 374.355,351.473 374.593,349.139 z " id="path441"/>
<path d="M 371.206,349.447 C 373.518,352.162 375.005,355.707 376.748,358.992 C 373.907,356.805 372.754,352.93 371.206,349.447 z " id="path443"/>
<path d="M 369.666,350.062 C 372.468,352.906 373.69,357.329 376.132,360.532 C 373.422,360.02 371.406,353.588 369.666,350.062 z " id="path445"/>
<path d="M 377.056,350.371 C 378.431,351.56 379.499,353.059 379.827,355.298 C 378.184,354.376 377.425,352.568 377.056,350.371 z " id="path447"/>
<path d="M 346.88,350.68 C 348.664,351.591 345.728,352.7 345.34,353.451 C 346.115,355.139 348.032,355.684 348.419,357.762 C 347.08,356.947 346.182,355.689 345.34,354.375 C 343.772,355.028 345.656,355.619 345.649,356.53 C 344.732,356.639 344.863,357.797 343.493,357.454 C 343.403,353.977 345.426,352.611 346.88,350.68 z " style="fill: rgb(255, 255, 255);" id="path449"/>
<path d="M 368.743,351.295 C 370.433,353.195 371.591,355.632 372.438,358.377 C 370.878,356.344 369.438,354.189 368.743,351.295 z " id="path451"/>
<path d="M 367.203,352.219 C 370.021,355.354 371.726,359.602 373.669,363.612 C 370.952,360.568 368.309,355.85 367.203,352.219 z " id="path453"/>
<path d="M 365.663,353.143 C 368.706,355.977 370.892,361.219 372.436,364.537 C 369.438,361.479 367.896,356.966 365.663,353.143 z " id="path455"/>
<path d="M 349.652,355.298 C 349.625,355.735 349.6,356.17 349.96,356.221 C 350.772,355.875 349.547,355.028 349.344,354.682 C 349.459,353.464 350.982,355.16 350.884,353.452 C 351.673,353.792 351.488,355.104 351.5,356.223 C 351.111,356.656 349.875,356.241 350.27,357.454 C 349.042,357.552 349.435,356.029 348.421,355.914 C 348.481,355.665 348.731,355.607 348.73,355.299 C 349.036,355.298 349.344,355.298 349.652,355.298 z " style="fill: rgb(255, 255, 255);" id="path457"/>
<path d="M 363.508,355.913 C 366.37,358.594 367.491,363.016 369.974,366.074 C 367.504,365.423 365,359.585 363.508,355.913 z " id="path459"/>
<path d="M 384.138,358.377 C 383.494,358.507 383.324,358.165 382.908,358.068 C 383.352,357.077 383.964,356.251 385.063,355.913 C 385.466,357.445 384.114,357.225 384.138,358.377 z " id="path461"/>
<path d="M 362.276,357.145 C 364.874,359.987 366.343,363.957 368.433,367.307 C 365.664,364.637 363.702,361.159 362.276,357.145 z " id="path463"/>
<path d="M 348.42,358.377 C 348.368,357.709 349.512,358.236 349.96,358.068 C 349.719,359.849 350.407,360.701 350.268,362.38 C 349.183,361.406 347.024,359.884 347.497,358.377 C 348.559,358.648 348.028,360.514 349.653,360.225 C 349.126,359.723 349.327,358.496 348.42,358.377 z " style="fill: rgb(255, 255, 255);" id="path465"/>
<path d="M 386.602,358.068 C 387.54,358.504 386.295,360.058 386.602,361.146 C 386.192,361.146 385.782,361.146 385.372,361.146 C 384.716,359.533 385.943,359.146 386.602,358.068 z " id="path467"/>
<path d="M 354.578,359.607 C 355.062,361.195 354.45,362.336 354.886,364.226 C 354.132,364.827 352.679,364.154 351.807,363.917 C 351.992,362.296 351.578,361.271 351.499,359.914 C 352.082,359.37 353.533,359.691 354.578,359.607 z " style="fill: rgb(255, 255, 255);" id="path469"/>
<path d="M 389.065,360.225 C 388.87,361.261 388.18,361.803 388.449,363.305 C 387.832,362.792 387.017,362.477 386.909,361.456 C 387.63,361.047 387.641,359.93 389.065,360.225 z " id="path471"/>
<path d="M 359.197,361.764 C 360.753,362.365 361.054,364.217 361.66,365.768 C 360.598,364.674 359.529,363.587 359.197,361.764 z " id="path473"/>
<path d="M 345.033,365.459 C 346.483,365.145 347.471,367.941 348.42,369.152 C 347.239,369.199 346.158,366.493 345.033,365.459 z " style="fill: rgb(255, 255, 255);" id="path475"/>
<path d="M 353.347,365.768 C 353.607,366.536 353.75,367.416 353.656,368.539 C 352.392,368.364 352.734,366.587 351.807,366.075 C 352.088,365.041 352.379,365.922 353.347,365.768 z " style="fill: rgb(255, 255, 255);" id="path477"/>
<path d="M 360.121,366.383 C 361.962,367.928 363.043,370.235 364.123,372.541 C 362.067,371.211 360.888,369.002 360.121,366.383 z " id="path479"/>
<path d="M 357.042,366.998 C 358.86,368.771 359.494,371.73 361.045,373.771 C 358.932,372.293 357.3,370.332 357.042,366.998 z " id="path481"/>
<path d="M 358.889,367.307 C 361.144,369.044 362.102,374.703 365.047,373.774 C 365.603,375.475 367.281,376.055 367.51,378.085 C 366.784,377.99 366.938,377.017 365.97,377.161 C 365.278,377.677 366.847,378.52 367.202,379.009 C 366.461,379.646 365.945,381.125 365.046,379.933 C 365.238,381.234 365.731,381.066 366.894,380.857 C 366.47,381.791 367.04,381.959 366.894,383.32 C 364.427,381.376 362.152,379.238 361.043,375.931 C 363.031,375.892 362.607,378.267 363.814,379.009 C 365.246,374.454 359.302,372.059 358.889,367.307 z " id="path483"/>
<path d="M 366.279,370.386 C 367.919,370.799 367.661,373.11 368.433,374.389 C 366.638,374.268 365.685,371.898 366.279,370.386 z " id="path485"/>
<path d="M 358.581,372.85 C 359.646,373.221 360.356,373.949 360.429,375.313 C 358.685,375.619 358.851,374.018 358.581,372.85 z " id="path487"/>
<path d="M 231.412,374.695 C 231.475,376.036 232.611,376.644 232.028,377.775 C 230.721,377.543 230.656,376.068 230.181,375.004 C 230.454,374.766 230.875,374.673 231.412,374.695 z " id="path489"/>
<path d="M 233.567,374.695 C 232.979,376.974 235.031,377.388 234.183,379.007 C 233.244,378.188 231.277,375.167 233.567,374.695 z " id="path491"/>
<path d="M 228.641,376.234 C 230.509,376.831 231.264,378.539 231.72,380.546 C 230.61,379.193 228.879,378.46 228.641,376.234 z " id="path493"/>
<path d="M 261.587,376.852 C 261.07,377.772 261.074,379.212 259.74,379.315 C 259.571,378.087 259.571,378.389 259.74,377.161 C 257.798,377.256 256.094,377.112 254.505,376.852 C 257.345,375.814 258.535,376.721 261.587,376.852 z " style="fill: rgb(255, 255, 255);" id="path495"/>
<path d="M 245.268,378.083 C 244.181,379.049 243.669,380.59 241.881,380.854 C 242.185,379.105 243.772,378.641 245.268,378.083 z " style="fill: rgb(255, 255, 255);" id="path497"/>
<path d="M 343.493,379.314 C 344.552,379.384 344.835,380.23 345.033,381.162 C 344.163,381.417 344.236,380.728 343.493,380.853 C 343.084,382.205 345.129,382.683 344.109,383.624 C 342.768,382.932 343.349,380.788 343.493,379.314 z " style="fill: rgb(255, 255, 255);" id="path499"/>
<path d="M 286.837,528.347 C 279.848,528.236 279.624,534.887 274.212,536.353 C 273.946,524.751 260.779,527.817 258.816,518.186 C 260.731,516.299 260.263,513.436 261.895,511.719 C 259.716,511.126 259.805,508.267 257.892,507.408 C 256.295,472.484 249.693,432.136 243.42,399.945 C 243.047,398.032 243.448,394.986 242.496,392.554 C 240.702,387.974 240.618,386.021 243.728,381.469 C 284.267,381.76 319.976,389.359 356.425,400.867 C 354.232,406.117 349.409,415.836 353.962,422.113 C 358.513,422.574 361.383,425.051 364.739,422.728 C 345.301,445.36 321.34,467.436 303.464,492.624 C 298.735,499.287 294.618,509.35 290.223,516.642 C 288.276,519.877 285.231,522.639 286.837,528.347 z " style="fill: none;" id="path501"/>
<path d="M 289.608,380.854 C 290.55,380.63 290.514,381.385 291.456,381.163 C 290.308,382.401 292.894,381.772 292.687,383.011 C 294.155,382.872 295.979,382.613 296.382,384.242 C 294.549,383.694 294.164,384.419 292.379,384.551 C 292.14,384.277 292.048,383.857 292.071,383.32 C 291.152,383.632 290.101,383.814 289.3,384.244 C 288.991,383.217 289.727,383.234 290.532,383.32 C 291.049,381.672 289.609,381.982 289.608,380.854 z " style="fill: rgb(255, 255, 255);" id="path503"/>
<path d="M 227.717,382.086 C 229.092,382.866 230.357,383.758 230.18,386.089 C 228.684,385.43 228.13,383.828 227.717,382.086 z " style="fill: rgb(255, 255, 255);" id="path505"/>
<path d="M 239.726,382.086 C 240.355,382.381 240.944,382.715 241.573,383.01 C 241.518,383.878 240.11,383.395 240.342,384.55 C 239.542,384.316 239.082,382.82 239.726,382.086 z " style="fill: rgb(255, 255, 255);" id="path507"/>
<path d="M 310.854,384.55 C 313.702,384.682 318.333,385.692 321.631,386.399 C 320.318,387.022 318.964,387.086 317.012,387.629 C 317.053,386.869 317.058,386.147 316.704,385.781 C 314.967,385.584 315.01,387.167 314.241,387.935 C 313.006,387.373 314.59,385.797 313.01,385.472 C 312.963,385.919 312.862,387.109 312.086,387.627 C 311.126,387.458 310.761,386.692 309.931,386.396 C 309.616,385.361 310.889,385.917 311.471,385.781 C 311.428,385.208 311.268,384.752 310.854,384.55 z " style="fill: rgb(255, 255, 255);" id="path509"/>
<path d="M 342.262,384.55 C 341.243,385.95 342.413,386.348 341.954,387.938 C 340.975,387.686 339.686,387.742 338.875,387.321 C 338.818,387.059 338.995,387.032 339.183,387.014 C 339.183,386.809 339.183,386.604 339.183,386.399 C 340.775,388.163 340.319,384.29 342.262,384.55 z " style="fill: rgb(255, 255, 255);" id="path511"/>
<path d="M 345.033,385.165 C 345.341,385.165 345.649,385.165 345.957,385.165 C 346.218,386.453 345.124,386.385 344.726,387.014 C 344.753,389.243 348.1,388.157 348.729,389.785 C 346.316,389.703 345.69,388.389 343.495,388.86 C 342.873,388.173 344.124,386.839 342.571,386.706 C 342.905,385.459 345.117,387.232 345.033,385.165 z " style="fill: rgb(255, 255, 255);" id="path513"/>
<path d="M 239.109,386.396 C 240.215,386.726 239.165,389.007 237.878,388.859 C 237.878,388.244 237.878,387.629 237.878,387.011 C 238.58,387.1 239.036,386.938 239.109,386.396 z " style="fill: rgb(255, 255, 255);" id="path515"/>
<path d="M 322.247,386.705 C 325.601,386.663 329.57,387.555 329.945,389.476 C 331.86,388.556 331.242,390.998 333.639,390.4 C 333.639,390.913 333.639,391.425 333.639,391.939 C 332.077,392.41 331.744,390.724 331.176,391.939 C 329.713,391.758 330.062,389.769 328.713,389.476 C 328.217,389.343 327.68,390.622 328.405,390.706 C 327.939,391.638 327.053,390.45 326.25,390.706 C 326.829,390.155 328.028,390.226 328.098,389.166 C 327.963,386.531 323.016,388.707 322.247,386.705 z " style="fill: rgb(255, 255, 255);" id="path517"/>
<path d="M 357.042,387.014 C 360.061,389.641 362.955,392.391 365.356,395.635 C 361.702,393.643 359.104,390.596 357.042,387.014 z " id="path519"/>
<path d="M 239.109,389.784 C 237.154,392.123 232.342,392.247 228.332,391.632 C 231.24,390.656 236.971,390.074 239.109,389.784 z " style="fill: rgb(255, 255, 255);" id="path521"/>
<path d="M 350.268,389.168 C 350.413,390.507 349.84,390.973 351.193,391.016 C 351.155,392.422 349.445,391.184 349.037,391.016 C 348.913,389.866 349.282,389.209 350.268,389.168 z " style="fill: rgb(255, 255, 255);" id="path523"/>
<path d="M 218.479,389.784 C 219.17,390.222 220.508,390.013 220.635,391.015 C 220.252,392.857 219.121,392.076 217.864,392.863 C 217.736,391.505 217.947,390.482 218.479,389.784 z " style="fill: rgb(255, 255, 255);" id="path525"/>
<path d="M 372.746,390.708 C 373.243,390.621 373.276,390.999 373.669,391.016 C 373.373,393.367 374.086,394.705 374.285,396.559 C 372.142,396.393 372.224,392.532 372.746,390.708 z " id="path527"/>
<path d="M 374.593,390.708 C 374.902,390.708 375.209,390.708 375.517,390.708 C 375.283,392.041 376.144,394.744 375.826,395.941 C 374.257,395.354 374.684,392.771 374.593,390.708 z " id="path529"/>
<path d="M 376.749,390.708 C 377.057,390.708 377.365,390.708 377.672,390.708 C 378.026,392.314 378.28,394.729 377.364,395.635 C 376.28,394.864 376.315,392.057 376.749,390.708 z " id="path531"/>
<path d="M 341.338,391.016 C 341.716,392.19 342.405,393.94 344.417,393.481 C 344.55,394.639 343.767,394.882 343.186,395.328 C 341.641,395.024 341.419,393.399 340.415,392.557 C 340.365,391.686 341.339,391.838 341.338,391.016 z " style="fill: rgb(255, 255, 255);" id="path533"/>
<path d="M 393.376,392.863 C 392.243,393.443 389.733,393.12 389.681,391.632 C 390.887,390.979 393.093,391.605 393.376,392.863 z " id="path535"/>
<path d="M 370.59,391.632 C 370.899,391.632 371.206,391.632 371.514,391.632 C 370.935,394.324 372.948,395.863 372.439,397.484 C 370.443,396.91 370.724,394.062 370.59,391.632 z " id="path537"/>
<path d="M 369.05,392.863 C 370.027,394.658 370.482,396.974 371.206,399.021 C 369.132,398.487 368.422,395.089 369.05,392.863 z " id="path539"/>
<path d="M 392.144,399.021 C 389.307,398.676 390.141,394.661 386.294,395.326 C 387.844,391.021 391.135,397.071 392.144,399.021 z " id="path541"/>
<path d="M 361.044,394.096 C 362.171,393.594 363.893,395.139 364.123,396.559 C 362.513,396.32 362.321,394.666 361.044,394.096 z " id="path543"/>
<path d="M 229.872,394.096 C 231.035,394.473 230.783,396.264 230.796,397.79 C 229.062,397.912 229.488,395.184 229.872,394.096 z " id="path545"/>
<path d="M 367.203,394.402 C 368.655,395.825 368.779,398.574 369.666,400.56 C 367.663,399.855 366.859,396.441 367.203,394.402 z " id="path547"/>
<path d="M 231.412,394.711 C 232.448,394.6 231.925,396.045 232.336,396.559 C 232.649,396.36 232.654,395.852 233.26,395.944 C 233.21,396.301 233.328,396.492 233.568,396.559 C 233.063,397.615 232.539,396.741 231.413,397.174 C 231.412,396.354 231.412,395.532 231.412,394.711 z " id="path549"/>
<path d="M 396.763,397.174 C 395.334,397.065 394.734,396.125 394.3,395.02 C 395.459,394.324 396.829,395.659 396.763,397.174 z " id="path551"/>
<path d="M 357.042,395.326 C 359.766,396.097 358.5,399.443 360.429,400.56 C 359.988,401.453 359.031,401.831 357.966,402.099 C 359.093,400.513 357.818,399.115 358.275,397.788 C 358.228,397.219 357.232,397.599 357.043,397.172 C 357.042,396.559 357.042,395.941 357.042,395.326 z " style="fill: rgb(255, 255, 255);" id="path553"/>
<path d="M 365.663,396.25 C 366.897,397.725 368.125,400.713 368.434,402.101 C 366.58,401.247 365.425,398.186 365.663,396.25 z " id="path555"/>
<path d="M 235.723,399.638 C 236.031,399.638 236.339,399.638 236.647,399.638 C 236.693,401.345 237.271,403.785 237.263,406.411 C 235.803,405.192 236.862,401.777 235.723,399.638 z " id="path557"/>
<path d="M 233.259,399.945 C 234.379,400.775 233.734,403.37 234.183,404.872 C 232.855,404.377 232.83,401.199 233.259,399.945 z " id="path559"/>
<path d="M 375.209,401.177 C 373.651,403.571 371.693,405.403 373.053,409.183 C 370.805,407.417 372.029,401.277 375.209,401.177 z " id="path561"/>
<path d="M 224.021,404.564 C 224.759,405.745 226.265,407.558 225.869,408.875 C 224.714,407.977 224.103,406.536 224.021,404.564 z " id="path563"/>
<path d="M 369.05,407.027 C 375.446,413.722 362.332,419.871 361.66,413.8 C 361.348,410.978 366.41,406.925 369.05,407.027 z " style="fill: rgb(255, 255, 255);" id="path565"/>
<path d="M 373.977,406.72 C 374.612,407.788 376.079,411.324 374.286,411.954 C 374.185,410.326 373.111,408.318 373.977,406.72 z " id="path567"/>
<path d="M 228.024,407.027 C 228.438,407.228 228.598,407.684 228.64,408.257 C 228.148,409.1 227.946,410.234 226.484,410.106 C 226.155,408.237 227.668,408.211 228.024,407.027 z " id="path569"/>
<path d="M 386.602,410.414 C 386.696,413.093 387.547,415.012 388.451,416.881 C 385.366,420.12 381.253,431.306 375.826,430.121 C 370.406,428.937 377.061,417.254 379.52,415.649 C 376.162,410.023 382.409,407.53 386.602,410.414 z " style="fill: rgb(255, 255, 255);" id="path571"/>
<path d="M 355.81,411.03 C 356.534,411.129 356.499,411.983 357.041,412.26 C 356.737,413.29 356.062,413.951 355.81,415.031 C 354.199,414.141 356.368,412.8 355.81,411.03 z " style="fill: rgb(255, 255, 255);" id="path573"/>
<path d="M 230.18,411.338 C 231.298,412.17 231.062,414.358 231.411,415.957 C 230.346,415.072 230.193,413.275 230.18,411.338 z " id="path575"/>
<path d="M 227.101,419.652 C 228.309,419.937 228.246,420.322 229.564,419.96 C 229.776,421.105 229.713,420.765 229.872,422.115 C 228.732,422.331 229.104,421.036 228.641,420.576 C 228.098,420.853 227.687,421.264 227.409,421.806 C 226.236,421.473 226.641,420.55 227.101,419.652 z " style="fill: rgb(255, 255, 255);" id="path577"/>
<path d="M 363.2,419.652 C 364.14,420.459 364.165,420.579 365.355,419.96 C 365.355,420.37 365.355,420.781 365.355,421.191 C 363.323,420.8 363.288,422.408 361.66,422.421 C 361.434,420.76 363.645,421.534 363.2,419.652 z " style="fill: rgb(255, 255, 255);" id="path579"/>
<path d="M 233.875,435.972 C 233.875,436.486 233.875,436.998 233.875,437.511 C 232.076,436.332 232.414,438.245 231.104,437.821 C 231.275,436.451 232.963,436.599 233.875,435.972 z " style="fill: rgb(255, 255, 255);" id="path581"/>
<path d="M 237.57,446.133 C 238.721,447.343 238.936,449.488 239.11,451.676 C 237.971,450.453 237.758,448.306 237.57,446.133 z " style="fill: rgb(255, 255, 255);" id="path583"/>
<path d="M 237.262,450.752 C 238.192,451.114 238.32,452.278 237.878,453.215 C 236.837,453.332 236.564,452.682 236.03,452.291 C 235.491,452.881 235.378,453.896 235.106,454.755 C 233.441,454.315 235.653,452.182 234.798,451.676 C 235.534,451.155 236.932,451.837 237.262,450.752 z " style="fill: rgb(255, 255, 255);" id="path585"/>
<path d="M 249.887,453.831 C 250.638,455.489 251.207,458.808 250.811,460.603 C 249.663,459.266 249.659,455.568 249.887,453.831 z " id="path587"/>
<path d="M 238.186,454.755 C 239.322,455.024 238.724,457.363 238.494,458.142 C 237.698,457.706 237.94,456.234 236.339,456.602 C 236.213,455.862 236.901,455.933 236.647,455.063 C 237.094,454.894 238.238,455.422 238.186,454.755 z " style="fill: rgb(255, 255, 255);" id="path589"/>
<path d="M 239.109,460.604 C 238.603,461.284 239.207,462.793 239.109,464.608 C 237.064,462.924 238.022,458.363 240.033,458.45 C 240.571,458.733 240.713,459.413 240.649,460.298 C 239.779,460.043 239.852,460.731 239.109,460.604 z " style="fill: rgb(255, 255, 255);" id="path591"/>
<path d="M 238.186,467.995 C 238.828,468.495 239.165,470.898 238.494,471.689 C 236.928,470.978 238.08,469.396 238.186,467.995 z " style="fill: rgb(255, 255, 255);" id="path593"/>
<path d="M 322.863,473.537 C 322.924,471.903 324.094,470.757 326.25,470.15 C 325.628,471.787 324.755,473.172 322.863,473.537 z " id="path595"/>
<path d="M 241.265,475.077 C 242.272,475.434 242.644,477.886 242.189,479.388 C 241.401,477.66 240.319,479.516 239.109,478.774 C 239.431,478.132 240.086,477.014 240.649,477.542 C 240.547,476.412 240.991,475.829 241.265,475.077 z " style="fill: rgb(255, 255, 255);" id="path597"/>
<path d="M 321.631,478.464 C 320.885,479.874 319.926,481.07 318.552,481.852 C 319.124,480.268 320.11,479.099 321.631,478.464 z " id="path599"/>
<path d="M 317.628,482.467 C 316.745,485.702 312.358,490.738 309.006,493.552 C 311.214,489.19 314.785,486.192 317.628,482.467 z " id="path601"/>
<path d="M 243.42,488.625 C 244.623,488.915 243.682,490.179 243.728,491.089 C 242.36,491.226 241.436,490.917 241.572,489.549 C 243.055,490.16 242.981,490.179 243.42,488.625 z " style="fill: rgb(255, 255, 255);" id="path603"/>
<path d="M 243.112,494.476 C 244.825,494.799 243.727,497.459 243.728,498.788 C 242.582,497.86 243.623,496.292 243.112,494.476 z " style="fill: rgb(255, 255, 255);" id="path605"/>
<path d="M 440.179,509.562 C 447.665,511.666 444.952,522.472 446.338,530.194 C 445.606,530.694 444.567,530.885 443.874,531.424 C 442.073,525.845 440.642,521.584 437.408,517.26 C 438.149,517.134 438.077,517.822 438.947,517.569 C 438.874,516.616 438.091,516.374 437.716,515.72 C 438.02,514.778 438.537,516.074 438.947,516.03 C 438.215,514.898 438.15,512.281 437.098,510.795 C 436.642,511.673 436.202,512.567 434.635,512.335 C 435.445,514.077 433.595,513.619 433.405,515.106 C 432.784,514.702 432.363,514.095 432.174,513.258 C 433.063,512.3 434.976,512.365 434.945,510.487 C 436.226,509.974 437.875,510.795 438.948,511.411 C 439.136,512.146 438.56,513.644 439.257,513.875 C 439.805,512.325 440.014,510.761 440.179,509.562 z M 441.411,521.881 C 441.634,523.002 442.863,523.3 442.026,524.652 C 442.797,525.521 443.48,526.48 444.49,527.116 C 444.848,526.197 443.82,525.462 444.798,524.345 C 443.923,523.396 442.594,521.521 441.411,521.881 z " style="fill: rgb(255, 255, 255);" id="path607"/>
<path d="M 292.995,515.722 C 293.406,515.722 293.816,515.722 294.226,515.722 C 293.432,518.007 292.108,519.763 291.147,521.881 C 290.648,519.939 293.215,518.409 292.995,515.722 z " style="fill: rgb(255, 255, 255);" id="path609"/>
<path d="M 256.661,518.186 C 258.222,518.678 258.65,520.303 259.124,521.881 C 256.408,522.237 255.397,520.146 256.661,518.186 z " style="fill: rgb(255, 255, 255);" id="path611"/>
<path d="M 315.473,521.572 C 317.161,520.817 318.514,523.042 318.861,524.651 C 316.902,524.454 316.979,522.223 315.473,521.572 z " style="fill: rgb(255, 255, 255);" id="path613"/>
<path d="M 444.798,524.344 C 443.82,525.461 444.85,526.198 444.49,527.115 C 443.48,526.48 442.799,525.521 442.026,524.651 C 442.863,523.298 441.632,523.002 441.411,521.88 C 442.594,521.521 443.923,523.396 444.798,524.344 z " id="path615"/>
<path d="M 403.537,523.112 C 399.92,524.93 392.971,523.663 389.989,522.802 C 394.469,522.58 399.634,522.946 403.537,523.112 z " id="path617"/>
<path d="M 253.274,524.036 C 253.329,525.471 250.031,526.167 249.887,524.651 C 251.467,524.896 251.907,524.003 253.274,524.036 z " id="path619"/>
<path d="M 305.312,524.651 C 305.843,524.139 308.476,524.139 309.007,524.651 C 308.706,526.343 305.856,525.434 305.312,524.651 z " id="path621"/>
<path d="M 415.854,525.575 C 419.371,525.726 423.907,525.413 427.555,526.191 C 423.436,526.566 418.024,527.035 415.854,525.575 z " id="path623"/>
<path d="M 297.614,526.807 C 297.277,528.268 295.655,528.471 294.227,528.039 C 295.187,527.387 296.112,526.01 297.614,526.807 z " id="path625"/>
<path d="M 395.839,526.807 C 396.343,528.542 394.143,528.69 393.683,527.732 C 393.107,528.079 393.03,528.924 392.453,529.272 C 392.578,529.865 393.647,529.514 393.377,530.502 C 392.73,531.153 392.176,530.14 391.529,529.886 C 391.305,528.947 391.843,528.764 391.837,528.039 C 391.172,527.677 390.423,527.4 389.681,527.115 C 391.055,525.657 393.57,527.236 395.839,526.807 z " id="path627"/>
<path d="M 402.306,526.499 C 402.579,526.738 403.001,526.83 403.537,526.807 C 403.332,528.142 401.332,527.681 401.382,529.272 C 400.623,529.311 399.899,529.319 399.534,528.963 C 400.237,527.921 401.817,527.756 402.306,526.499 z " id="path629"/>
<path d="M 378.288,527.115 C 377.013,528.064 374.155,527.717 372.129,527.423 C 373.203,526.48 376.792,526.634 378.288,527.115 z " id="path631"/>
<path d="M 397.995,527.73 C 396.751,527.076 398.413,530.973 397.071,531.733 C 396.457,531.087 395.736,530.921 395.531,532.042 C 394.853,531.251 394.153,530.009 394.607,528.963 C 396.551,529.558 396.953,525.141 397.995,527.73 z " id="path633"/>
<path d="M 306.543,528.039 C 304.58,528.334 303.81,529.822 301.616,529.886 C 302.35,528.606 305.866,526.454 306.543,528.039 z " id="path635"/>
<path d="M 418.933,527.73 C 421.508,528.299 420.133,531.119 418.933,532.042 C 417.1,530.917 420.146,529.258 418.933,527.73 z " id="path637"/>
<path d="M 287.145,528.039 C 287.687,528.317 287.654,529.172 288.377,529.269 C 287.651,530.51 286.669,529.597 285.297,530.194 C 285.63,529.193 287.08,529.309 287.145,528.039 z " style="fill: rgb(255, 255, 255);" id="path639"/>
<path d="M 389.065,529.578 C 389.065,529.989 389.065,530.399 389.065,530.808 C 388.35,530.908 387.882,530.759 387.525,530.5 C 386.939,531.87 387.458,532.404 387.525,533.887 C 386.539,534.237 385.483,534.514 384.137,534.503 C 384.187,534.147 384.07,533.955 383.829,533.887 C 383.899,532.521 386.838,534.024 386.908,532.657 C 386.848,532.408 386.598,532.349 386.599,532.042 C 385.658,531.818 385.694,532.573 384.751,532.35 C 384.344,531.756 384.977,531.112 384.443,530.196 C 384.885,530.368 385.194,530.675 385.367,531.12 C 386.171,530.174 386.948,529.206 389.065,529.578 z " id="path641"/>
<path d="M 400.15,529.578 C 400.855,529.9 402.007,529.773 402.613,530.194 C 402.693,531.198 402.248,531.674 401.382,531.733 C 401.149,530.458 400.634,531.374 399.842,530.808 C 399.712,530.166 400.053,529.994 400.15,529.578 z " id="path643"/>
<path d="M 298.538,530.81 C 297.275,530.82 295.701,531.675 294.843,531.12 C 295.338,530.398 298.259,528.888 298.538,530.81 z " id="path645"/>
<path d="M 343.186,530.502 C 345.542,531.5 349.088,530.069 349.96,532.042 C 348.463,530.767 344.114,532.345 343.186,530.502 z " style="fill: rgb(255, 255, 255);" id="path647"/>
<path d="M 362.892,531.118 C 362.411,532.381 361.303,533.017 359.505,532.965 C 359.122,532.182 359.37,531.464 359.505,530.81 C 361.091,531.021 362.085,530.018 362.892,531.118 z " style="fill: rgb(255, 255, 255);" id="path649"/>
<path d="M 442.95,532.657 C 445.373,532.719 446.565,531.551 447.877,530.502 C 450.218,531.796 451.973,535.587 450.341,538.2 C 449.566,538.126 449.066,537.292 449.725,536.66 C 447.067,536.574 444.711,533.791 442.95,532.657 z " style="fill: rgb(255, 255, 255);" id="path651"/>
<path d="M 333.024,530.81 C 334.961,530.897 335.024,532.586 336.718,531.426 C 336.914,533.327 332.707,533.054 333.024,530.81 z " style="fill: rgb(255, 255, 255);" id="path653"/>
<path d="M 267.438,531.118 C 267.829,531.609 268.329,534.927 266.514,535.121 C 266.65,533.614 267.177,532.499 267.438,531.118 z " id="path655"/>
<path d="M 392.76,534.505 C 391.929,533.604 391.566,534.24 390.606,534.505 C 390.34,534.257 390.422,533.662 389.99,533.581 C 389.951,532.896 391.99,532.747 390.914,532.042 C 391.276,532.306 394.485,532.363 394.609,533.889 C 393.739,533.635 393.81,534.325 393.069,534.199 C 393.172,535.289 393.916,534.956 393.377,536.047 C 393.582,536.047 393.787,536.047 393.993,536.047 C 393.906,534.999 395.16,534.638 395.533,533.276 C 396.6,533.523 396.717,532.817 397.688,532.966 C 397.963,534.371 396.675,534.212 395.84,534.506 C 395.934,536.195 394.919,535.858 395.84,536.97 C 394.432,537.384 391.372,537.529 389.989,536.97 C 390.357,536.004 391.043,536.865 391.837,536.046 C 391.665,535.603 391.358,535.294 390.913,535.122 C 391.083,533.936 392.103,535.357 392.76,534.505 z " id="path657"/>
<path d="M 459.886,545.282 C 458.397,544.616 457.223,543.635 456.499,542.203 C 455.009,542.273 456.204,543.119 455.575,544.051 C 454.59,544.01 454.221,543.354 454.344,542.203 C 454.701,541.944 455.169,541.797 455.883,541.893 C 454.904,539.691 454.368,537.044 452.188,536.043 C 455.496,527.725 457.297,543.108 459.886,545.282 z " style="fill: rgb(255, 255, 255);" id="path659"/>
<path d="M 377.672,534.505 C 376.772,534.892 375.832,534.303 374.285,534.505 C 374.302,533.321 378.147,532.499 377.672,534.505 z " id="path661"/>
<path d="M 336.104,534.812 C 332.542,535.775 326.591,534.782 323.788,533.887 C 327.533,533.35 332.194,534.495 336.104,534.812 z " id="path663"/>
<path d="M 425.399,533.889 C 426.027,534.287 425.959,535.382 427.247,535.121 C 427.368,536.371 427.134,537.267 426.015,537.276 C 426.89,535.81 424.762,535.994 425.399,533.889 z " style="fill: rgb(255, 255, 255);" id="path665"/>
<path d="M 407.848,534.197 C 408.158,534.197 408.464,534.197 408.773,534.197 C 409.466,534.862 408.517,535.247 408.773,536.351 C 408.363,536.351 407.952,536.351 407.542,536.351 C 407.543,535.534 407.424,534.594 407.848,534.197 z " style="fill: rgb(255, 255, 255);" id="path667"/>
<path d="M 195.693,535.121 C 197.209,535.189 195.592,537.48 197.848,537.276 C 197.803,538.614 198.714,538.994 198.156,540.047 C 196.591,539.765 195.938,538.569 195.077,537.583 C 194.241,537.925 192.714,538.16 192.921,536.659 C 193.916,536.693 195.378,536.542 195.693,535.121 z " style="fill: rgb(255, 255, 255);" id="path669"/>
<path d="M 229.256,535.121 C 229.564,535.121 229.872,535.121 230.18,535.121 C 229.968,536.359 230.475,536.879 230.488,537.892 C 230.077,537.892 229.667,537.892 229.257,537.892 C 229.522,536.665 228.796,535.617 229.256,535.121 z " style="fill: rgb(255, 255, 255);" id="path671"/>
<path d="M 429.71,535.429 C 430.831,535.653 430.236,537.776 430.018,538.508 C 429.624,538.08 428.566,538.32 428.17,537.892 C 428.17,537.278 428.17,536.662 428.17,536.045 C 429.246,535.769 428.696,537.049 428.479,537.276 C 428.788,537.276 429.094,537.276 429.404,537.276 C 430.082,537.238 429.533,535.97 429.71,535.429 z " style="fill: rgb(255, 255, 255);" id="path673"/>
<path d="M 376.749,535.736 C 377.586,535.924 377.956,536.582 377.98,537.584 C 376.92,537.616 375.768,537.743 375.516,536.969 C 375.71,536.341 377.072,536.882 376.749,535.736 z " id="path675"/>
<path d="M 384.138,536.66 C 383.306,538.564 380.265,537.032 378.288,537.276 C 379.877,536.174 382.429,535.873 384.138,536.66 z " id="path677"/>
<path d="M 389.065,536.66 C 388.328,537.528 385.26,538.061 384.446,536.969 C 385.354,535.667 387.993,535.979 389.065,536.66 z " id="path679"/>
<path d="M 250.502,537.584 C 251.308,538.427 250.006,538.896 249.886,539.739 C 248.594,538.986 246.564,540.667 246.499,538.508 C 248.751,539.756 248.65,538.113 250.502,537.584 z " style="fill: rgb(255, 255, 255);" id="path681"/>
<path d="M 278.215,538.2 C 278.938,538.298 279.371,538.685 280.371,538.508 C 280.496,540.277 278.949,540.37 277.908,540.971 C 278.388,539.918 278.625,539.538 278.215,538.2 z " style="fill: rgb(255, 255, 255);" id="path683"/>
<path d="M 446.338,538.2 C 447.203,538.258 447.65,538.735 447.569,539.739 C 447.052,540.283 446.537,539.466 445.414,539.739 C 445.268,538.771 445.798,538.481 446.338,538.2 z " style="fill: rgb(255, 255, 255);" id="path685"/>
<path d="M 262.203,538.508 C 263.911,538.444 264.914,539.082 265.283,540.357 C 264.153,539.188 262.625,539.759 261.588,539.741 C 261.72,539.256 262.556,539.477 262.203,538.508 z " style="fill: rgb(255, 255, 255);" id="path687"/>
<path d="M 277.907,541.587 C 277.907,542.101 277.907,542.613 277.907,543.127 C 277.165,543.001 277.238,543.689 276.367,543.435 C 276.108,543.079 275.961,542.611 276.059,541.895 C 277,542.117 277.182,541.58 277.907,541.587 z " style="fill: rgb(255, 255, 255);" id="path689"/>
<path d="M 446.953,541.895 C 447.364,541.895 447.774,541.895 448.183,541.895 C 447.966,543.52 446.333,543.787 447.569,545.284 C 446.359,545.761 445.138,543.898 443.566,543.744 C 443.527,543.192 443.943,543.095 443.874,542.513 C 445.287,542.23 445.362,543.284 446.645,543.129 C 447.062,543.031 446.9,542.355 446.953,541.895 z " style="fill: rgb(255, 255, 255);" id="path691"/>
<path d="M 298.845,543.742 C 297.154,543.51 295.449,544.467 294.534,542.818 C 295.986,542.208 298.171,542.646 298.845,543.742 z " id="path693"/>
<path d="M 281.294,545.896 C 280.328,545.554 280.481,545.752 279.754,546.206 C 279.659,547.24 280.165,548.875 278.831,548.669 C 278.269,547.076 278.581,544.607 276.368,544.666 C 278.153,543.831 280.67,543.529 281.294,545.896 z " style="fill: rgb(255, 255, 255);" id="path695"/>
<path d="M 441.411,546.206 C 443.244,546.799 443.556,547.029 445.722,547.13 C 445.211,549.267 441.354,548.786 441.411,546.206 z " style="fill: rgb(255, 255, 255);" id="path697"/>
<path d="M 456.807,546.821 C 458.229,547.967 459.529,549.233 461.735,549.592 C 461.536,551.1 461.68,551.038 461.735,552.671 C 462.017,553.209 462.698,553.351 463.583,553.287 C 463.729,554.256 463.145,554.49 462.967,555.135 C 462.095,554.815 461.684,554.815 460.812,555.135 C 460.969,552.024 456.762,550.823 456.807,546.821 z " style="fill: rgb(255, 255, 255);" id="path699"/>
<path d="M 295.766,547.13 C 297.074,547.361 296.579,549.398 296.69,550.824 C 295.265,550.133 295.629,548.861 295.766,547.13 z " id="path701"/>
<path d="M 463.581,548.669 C 465.11,548.642 465.623,550.913 464.505,551.748 C 463.538,551.894 463.693,550.92 462.965,550.824 C 462.783,549.72 463.323,549.335 463.581,548.669 z " style="fill: rgb(255, 255, 255);" id="path703"/>
<path d="M 468.199,560.062 C 468.508,560.062 468.815,560.062 469.123,560.062 C 469.499,561.029 469.183,562.656 467.584,562.525 C 467.659,561.574 467.896,560.785 468.199,560.062 z " style="fill: rgb(255, 255, 255);" id="path705"/>
<path d="M 465.429,560.37 C 466.522,561.074 465.653,561.934 466.66,562.833 C 465.105,563.41 465.821,566.573 466.351,568.068 C 465.864,568.042 465.176,568.214 465.12,567.758 C 464.539,567.792 464.906,568.778 464.196,568.682 C 465.878,569.669 465.523,572.692 468.814,572.07 C 468.293,573.367 467.157,572.392 466.351,573.61 C 465.125,573.244 464.661,572.252 463.58,573.301 C 463.614,572.514 464.143,572.223 464.504,571.761 C 463.167,569.405 461.156,567.719 460.501,564.679 C 461.387,563.884 462.317,564.91 462.964,565.295 C 462.967,566.112 462.848,567.053 463.273,567.45 C 464.143,567.705 464.071,567.014 464.812,567.142 C 464.484,564.793 461.937,563.396 462.658,560.983 C 463.749,561.33 463.195,563.32 465.121,562.831 C 465.39,561.844 464.646,561.868 464.197,561.601 C 464.227,560.811 465.398,561.161 465.429,560.37 z " style="fill: rgb(255, 255, 255);" id="path707"/>
<path d="M 458.347,562.525 C 459.288,562.918 459.252,564.289 460.195,564.679 C 459.778,565.391 458.958,565.7 459.27,567.144 C 460.489,567.363 460.488,568.799 461.735,568.991 C 461.445,570.411 461.962,571.023 462.965,571.147 C 462.917,572.324 462.981,573.387 463.581,573.918 C 462.691,574.887 462.511,572.543 461.732,572.379 C 460.341,572.567 462.331,574.348 460.502,574.227 C 461.139,571.446 460.68,568.713 458.038,568.376 C 457.921,567.335 458.572,567.064 458.962,566.528 C 458.191,565.863 458.432,564.184 457.423,563.757 C 457.152,562.769 458.221,563.119 458.347,562.525 z " style="fill: rgb(255, 255, 255);" id="path709"/>
<path d="M 463.889,574.227 C 465.381,574.188 465.42,576.692 464.505,577.306 C 463.8,575.25 462.593,578.198 461.117,576.997 C 460.951,575.907 462.208,576.24 462.041,575.15 C 462.989,574.921 462.633,575.995 463.581,575.764 C 464.248,575.817 463.721,574.674 463.889,574.227 z " style="fill: rgb(255, 255, 255);" id="path711"/>
<path d="M 466.354,575.15 C 467.387,575.583 468.88,576.033 468.201,577.304 C 467.285,577.195 466.639,576.814 466.046,576.38 C 465.914,575.738 466.255,575.566 466.354,575.15 z " style="fill: rgb(255, 255, 255);" id="path713"/>
</svg>